<svg width="725" height="180" viewBox="0 0 725 180" fill="none" xmlns="http://www.w3.org/2000/svg">
<path d="M0 8C0 3.58172 3.58172 0 8 0H717C721.418 0 725 3.58172 725 8V180H0V8Z" fill="#D0DCFF"/>
<mask id="mask0_301_831" style="mask-type:alpha" maskUnits="userSpaceOnUse" x="0" y="0" width="725" height="180">
<path d="M0 8C0 3.58172 3.58172 0 8 0H717C721.418 0 725 3.58172 725 8V180H0V8Z" fill="#B9C4E6"/>
</mask>
<g mask="url(#mask0_301_831)">
<path d="M489.655 24.2819C522.363 60.1413 535.805 125.104 521.019 176.035C506.681 226.965 464.116 263.864 424.687 272.179C385.258 279.975 348.965 259.187 308.64 239.438C268.763 219.689 225.301 202.02 211.859 166.16C198.417 130.821 214.996 77.8111 243.671 42.9911C272.347 8.17118 313.12 -8.45926 359.27 -13.1366C405.42 -18.3336 456.947 -11.5775 489.655 24.2819Z" fill="#E7EDFF"/>
<g clip-path="url(#clip0_301_831)">
<path d="M351.742 182.725L354.511 173.737C351.179 170.083 347.003 167.294 342.345 165.614C346.896 173.128 342.486 182.932 344.324 191.516C344.917 194.189 346.107 196.695 347.804 198.847C349.502 201 351.663 202.744 354.129 203.951L358.331 209.14C360.533 205.304 361.876 201.038 362.265 196.635C362.654 192.233 362.081 187.798 360.585 183.638C359.723 181.312 358.57 179.104 357.154 177.065C354.658 179.99 351.742 182.725 351.742 182.725Z" fill="white"/>
<path d="M336.517 183.873L334.974 174.598C330.357 172.808 325.371 172.169 320.45 172.735C327.886 177.438 328.325 188.172 333.811 195.039C335.539 197.168 337.724 198.882 340.207 200.054C342.689 201.226 345.404 201.826 348.151 201.81L354.234 204.587C354.489 200.174 353.781 195.759 352.16 191.646C350.538 187.532 348.041 183.818 344.841 180.759C343.028 179.061 341.008 177.597 338.829 176.401C337.903 180.13 336.517 183.873 336.517 183.873Z" fill="white"/>
<path d="M489.723 182.113L485.215 191.51L457.533 173.243L453.506 167.774L440.302 149.842L434.934 158.331L431.199 167.205C429.982 167.996 428.957 169.047 428.197 170.281C427.436 171.516 426.961 172.903 426.804 174.343L426.633 175.914L428.993 197.06L420.023 199.805L414.872 171.399L416.556 165.243L418.29 156.603L427.019 129.299H450.378L463.776 157.724L464.756 163.515L468.555 167.861L489.723 182.113Z" fill="#2F2E41"/>
<path d="M441.177 84.6277L445.11 87.6121L449.852 89.0646C449.852 89.0646 451.812 116.551 453.579 118.312C455.345 120.072 453.752 120.12 454.107 122.407C454.462 124.694 455.325 129.383 455.325 129.383C443.401 135.674 433.121 135.843 424.864 128.481C424.758 128.026 424.812 127.548 425.016 127.127C425.22 126.706 425.562 126.368 425.986 126.167C427.523 125.354 424.569 121.561 425.825 120.927C427.081 120.292 425.314 114.79 425.314 114.79L426.473 103.31L425.558 101.475L427.792 90.2467L431.669 88.8355L433.217 85.1166L441.177 84.6277Z" fill="#3F3D56"/>
<path d="M443.641 133.48C443.623 132.984 443.715 132.49 443.91 132.032C444.104 131.575 444.397 131.166 444.768 130.834C445.138 130.502 445.577 130.255 446.054 130.11C446.531 129.965 447.034 129.926 447.527 129.996L453.069 119.26L456.156 124.728L450.42 134.085C450.248 134.903 449.78 135.63 449.105 136.127C448.431 136.625 447.597 136.858 446.761 136.784C445.925 136.709 445.146 136.332 444.571 135.723C443.996 135.114 443.665 134.316 443.641 133.48Z" fill="#FFB6B6"/>
<path d="M452.974 130.854L464.86 112.492L464.821 112.408C464.776 112.311 462.084 106.517 459.476 101.21C459.074 100.393 458.675 99.5869 458.287 98.8153C458.12 98.4823 457.955 98.1563 457.793 97.8372C456.697 95.6847 455.74 93.9057 455.169 93.0606C453.905 91.1499 452.024 89.7275 449.837 89.0295L449.782 89.0154L449.73 89.0372C448.66 89.487 447.776 90.2867 447.224 91.3044C446.672 92.322 446.484 93.4969 446.691 94.6353C447.722 100.126 450.02 105.303 453.402 109.758L455.329 112.289L448.632 126.8L452.974 130.854Z" fill="#3F3D56"/>
<path d="M412.099 60.4704C412.427 60.845 412.668 61.2865 412.805 61.7639C412.943 62.2413 412.974 62.7429 412.896 63.2335C412.818 63.7241 412.633 64.1917 412.354 64.6033C412.075 65.0149 411.709 65.3606 411.282 65.616L413.759 77.4344L407.907 75.1247L406.451 64.2559C406.068 63.5117 405.972 62.6535 406.182 61.8438C406.392 61.034 406.892 60.3291 407.588 59.8624C408.284 59.3958 409.128 59.2 409.96 59.3121C410.791 59.4241 411.553 59.8363 412.099 60.4704Z" fill="#FFB6B6"/>
<path d="M406.509 68.3682L408.875 90.0924L408.959 90.1334C409.028 90.1673 412.027 91.6332 415.708 93.379C416.329 93.6735 416.24 94.9492 416.889 95.2541C417.336 95.4642 418.516 94.7021 418.968 94.9126C422.991 96.7878 427.059 98.6113 428.681 99.1053C430.869 99.7965 433.23 99.7208 435.369 98.8907L435.421 98.8671L435.448 98.8172C435.994 97.7965 436.176 96.6206 435.962 95.4834C435.748 94.3461 435.152 93.3154 434.272 92.5613C430.001 88.9428 424.946 86.3629 419.504 85.0255L416.408 84.2682L412.442 68.7929L406.509 68.3682Z" fill="#3F3D56"/>
<path d="M436.985 83.397C441.28 83.397 444.763 79.9261 444.763 75.6445C444.763 71.363 441.28 67.8921 436.985 67.8921C432.689 67.8921 429.207 71.363 429.207 75.6445C429.207 79.9261 432.689 83.397 436.985 83.397Z" fill="#FFB6B6"/>
<path d="M429.262 70.4495C429.902 68.5947 433.086 67.3083 438.248 67.1294C443.41 66.9505 444.72 73.0138 444.72 73.0138C448.166 75.8 441.04 83.2596 440.695 82.9909L440.85 81.5894C441.107 79.268 442.197 77.4567 440.81 75.0374L439.479 75.0526C437.758 75.3823 436.038 75.712 434.318 76.0417L436.355 74.2545L436.297 74.1659C435.431 74.6156 434.488 74.9009 433.517 75.0072C432.423 75.0713 431.226 74.6372 430.702 73.6773C430.562 73.4135 430.476 73.1244 430.45 72.8271C428.974 73.4149 428.299 75.2285 428.299 75.2285C428.299 75.2285 428.623 72.3043 429.262 70.4495Z" fill="#2F2E41"/>
<path d="M277.627 70.9147C277.522 70.7813 277.408 70.6545 277.287 70.535C277.317 70.4944 277.346 70.4502 277.376 70.4097L277.627 70.9147Z" fill="#2F2E41"/>
<path d="M279.14 102.095C277.868 104.347 275.327 105.604 272.808 106.22C269.979 106.958 267 106.901 264.201 106.054C263.846 105.94 263.491 105.807 263.147 105.66C263.312 105.222 263.444 104.772 263.539 104.314C263.668 103.694 263.732 103.063 263.732 102.43C263.451 102.975 263.088 103.474 262.655 103.909C262.321 104.258 261.942 104.562 261.527 104.812C260.241 104.034 259.127 103.003 258.254 101.781C258.309 101.645 258.365 101.509 258.417 101.372C258.685 100.66 258.898 99.9277 259.053 99.1825C259.263 98.1748 259.368 97.1482 259.367 96.119C258.911 97.0058 258.32 97.8167 257.614 98.5226C257.402 98.7482 257.178 98.9612 256.941 99.1604C256.574 98.0503 256.432 96.8788 256.524 95.7137C256.615 94.5486 256.938 93.4133 257.473 92.3736C258.938 89.6751 261.779 88.0715 264.309 86.3278C266.842 84.5841 269.376 82.2248 269.59 79.1613C269.734 77.0932 268.773 75.0214 269.157 72.9865C269.319 72.1284 269.714 71.331 270.299 70.6811C270.884 70.0313 271.637 69.554 272.476 69.3011C273.314 69.0483 274.206 69.0296 275.055 69.2472C275.903 69.4647 276.675 69.9102 277.287 70.535C275.852 72.5626 274.424 74.6602 273.844 77.0711C273.252 79.5263 273.736 82.4054 275.678 84.0311C276.344 84.5915 277.161 84.9896 277.676 85.69C278.36 86.619 278.363 87.8577 278.474 89.0005C278.696 91.2234 279.425 93.3615 279.817 95.5623C280.213 97.7595 280.235 100.145 279.14 102.095Z" fill="#2F2E41"/>
<path d="M270.184 77.4641C270.183 78.7786 270.507 80.0732 271.125 81.2341C271.744 82.3951 272.639 83.3869 273.732 84.1226C274.825 84.8582 276.083 85.3152 277.394 85.4533C278.706 85.5915 280.032 85.4067 281.255 84.9151C282.478 84.4234 283.561 83.64 284.41 82.6337C285.258 81.6273 285.846 80.4287 286.121 79.1431C286.397 77.8575 286.351 76.5242 285.989 75.2603C285.626 73.9963 284.958 72.8404 284.043 71.8939L284.004 71.8554C283.939 71.7879 283.875 71.7205 283.807 71.6562L283.806 71.656L283.805 71.6553L283.804 71.6542L283.804 71.653C283.72 71.5759 283.637 71.4988 283.549 71.4249C282.131 70.185 280.138 68.8391 278.105 68.8391C273.654 68.8391 270.184 73.0279 270.184 77.4641Z" fill="#2F2E41"/>
<path d="M316.11 73.34C316.148 73.7683 316.092 74.1998 315.945 74.6042C315.799 75.0086 315.565 75.3759 315.26 75.6804C314.955 75.9849 314.587 76.2191 314.182 76.3664C313.776 76.5138 313.344 76.5708 312.914 76.5335L292.962 94.4887L289.528 89.0837L310.22 73.1339C310.331 72.4184 310.701 71.7682 311.261 71.3066C311.821 70.845 312.531 70.6041 313.257 70.6295C313.983 70.6549 314.674 70.9448 315.2 71.4444C315.726 71.9439 316.05 72.6184 316.11 73.34Z" fill="#A0616A"/>
<path d="M284.434 99.9082C284.434 99.9082 285.177 101.275 287.713 99.1647C289.743 97.4754 299.469 90.1415 301.564 87.1363C302.043 87.3252 302.57 87.3502 303.065 87.2071C303.559 87.0641 303.991 86.7612 304.294 86.3463L298.553 81.335C296.835 81.532 296.872 82.6822 297.051 83.3352L292.72 85.2907L281.537 92.4138L283.88 98.9299L284.434 99.9082Z" fill="#6C63FF"/>
<path d="M273.601 112.498L273.182 114.483L272.827 121.805L288.461 122.661L287.975 111.4L286.46 108.919L273.601 112.498Z" fill="#A0616A"/>
<path d="M280.226 86.0564C283.958 86.0564 286.983 83.0415 286.983 79.3223C286.983 75.6031 283.958 72.5881 280.226 72.5881C276.495 72.5881 273.47 75.6031 273.47 79.3223C273.47 83.0415 276.495 86.0564 280.226 86.0564Z" fill="#A0616A"/>
<path d="M268.231 104.161L268.19 98.5632C268.189 96.5491 268.872 94.5941 270.13 93.0171C271.387 91.4402 273.143 90.3343 275.111 89.88L275.137 89.874L276.473 88.0798L281.901 88.621L282.896 90.6476L286.829 92.9819L288.343 97.8339C289 98.2702 289.56 98.8365 289.988 99.4976C290.416 100.159 290.703 100.9 290.831 101.677C291.345 104.95 289.046 108.225 288.772 108.6L288.068 112.556L272.737 115.252L272.613 115.268L268.231 104.161Z" fill="#6C63FF"/>
<path d="M288.494 78.1216C287.706 78.6192 286.888 79.0685 286.046 79.4672C285.19 79.8767 284.296 80.1991 283.375 80.4294C283.112 79.8535 282.79 79.3062 282.414 78.7963C282.51 79.4005 282.513 80.016 282.421 80.6211C280.895 80.8664 279.333 80.7386 277.868 80.2487L276.596 78.1217L276.499 80.4957C275.445 80.6874 274.395 80.8681 273.341 81.0561C273.278 81.0634 273.215 81.0782 273.156 81.0893C272.501 78.1475 273.429 74.9071 275.493 72.9459C276.518 71.9823 277.796 71.3287 279.179 71.0611C280.562 70.7935 281.993 70.923 283.305 71.4344C283.471 71.5008 283.641 71.5745 283.804 71.6519L283.804 71.6534L283.805 71.6546L283.807 71.6554L283.808 71.6556C283.904 71.7035 283.985 71.8178 284.093 71.8068C288.709 71.2943 288.857 74.8628 288.494 78.1216Z" fill="#2F2E41"/>
<path d="M277.254 184.83L280.635 187.422L292.278 175.659L287.288 171.832L277.254 184.83Z" fill="#A0616A"/>
<path d="M266.283 170.473L266.283 170.429L267.885 167.677L266.249 164.094L266.2 154.89L266.465 153.508C266.822 151.65 266.718 149.733 266.163 147.924L266.133 142.321C266.076 140.918 268.257 139.683 267.748 138.513C262.94 127.454 272.658 119.017 272.724 118.949L272.923 118.744L274 119.557L275.026 119.558L288.866 122.072L288.965 122.258C289.51 123.275 290.56 126.783 290.623 128.37C291.312 129.166 299.169 138.228 299.868 138.857C304.588 143.114 307.29 150.158 308.48 153.979C308.776 154.923 308.836 155.925 308.654 156.898C308.472 157.87 308.055 158.783 307.438 159.558L289.57 179.064L284.762 174.641L294.43 157.082L293.733 155.3C292.482 155.07 291.35 154.415 290.53 153.445L288.572 151.129C288.03 150.49 287.686 149.707 287.581 148.877L286.393 148.735L282.141 144.284L279.19 170.915L278.388 173.019L264.419 189.386L258.502 185.7L266.283 170.473Z" fill="#2F2E41"/>
<path d="M264.15 56.1242C263.882 56.461 263.691 56.8523 263.59 57.2706C263.49 57.6889 263.483 58.124 263.57 58.5452C263.657 58.9665 263.835 59.3637 264.092 59.7089C264.35 60.054 264.68 60.3387 265.06 60.5429L260.618 73.6493L264.245 87.5387L270.093 84.9035L266.484 74.4271L269.184 59.1779C269.486 58.5193 269.535 57.7732 269.322 57.0811C269.109 56.3889 268.649 55.7987 268.028 55.4223C267.407 55.0459 266.67 54.9094 265.955 55.0388C265.24 55.1682 264.598 55.5544 264.15 56.1242Z" fill="#A0616A"/>
<path d="M269.503 98.9828C269.503 98.9828 268.13 99.7179 267.174 96.5661C266.41 94.0429 261.205 80.3428 261.111 76.6843C260.607 76.5802 260.152 76.3119 259.818 75.9217C259.484 75.5315 259.29 75.0416 259.266 74.5292L266.825 73.4866C268.152 74.592 267.487 75.5328 266.977 75.9804L269.552 80.3271L274.934 92.062L270.506 98.4689L269.503 98.9828Z" fill="#6C63FF"/>
<path d="M273.339 81.0554C274.115 78.7221 275.507 76.6399 277.369 75.0274C279.231 73.4149 281.494 72.3315 283.92 71.8907C283.93 71.8875 283.962 71.8747 284.004 71.8554C284.03 71.8393 284.062 71.8233 284.094 71.8072C283.998 71.7526 283.904 71.7045 283.807 71.6562L283.806 71.656L283.805 71.6553L283.804 71.6542L283.804 71.653C283.72 71.5759 283.637 71.4988 283.55 71.4249L283.305 71.4346C283.305 71.4346 274.696 70.0758 273.339 81.0554Z" fill="#FD6584"/>
<path d="M384.42 156.097C385.36 154.69 384.804 152.675 383.178 151.597C381.553 150.519 379.473 150.786 378.534 152.194C377.594 153.601 378.15 155.616 379.776 156.694C381.401 157.772 383.481 157.505 384.42 156.097Z" fill="white"/>
<path d="M365.348 103.564C366.288 102.156 365.732 100.141 364.106 99.0634C362.481 97.9855 360.401 98.2527 359.462 99.6602C358.522 101.068 359.078 103.083 360.704 104.16C362.329 105.238 364.409 104.971 365.348 103.564Z" fill="white"/>
<path d="M445.104 184.438C446.043 183.03 445.487 181.016 443.862 179.938C442.236 178.86 440.157 179.127 439.217 180.534C438.278 181.942 438.834 183.957 440.459 185.035C442.085 186.113 444.164 185.845 445.104 184.438Z" fill="white"/>
<path d="M283.859 15.4313C284.799 14.0238 284.243 12.0089 282.617 10.9311C280.992 9.85317 278.912 10.1204 277.973 11.5279C277.033 12.9354 277.589 14.9502 279.215 16.0281C280.84 17.106 282.92 16.8388 283.859 15.4313Z" fill="#F2F2F2"/>
<path d="M359.107 -1.1581C360.046 -2.56561 359.49 -4.58042 357.865 -5.65831C356.239 -6.7362 354.16 -6.46899 353.22 -5.06148C352.281 -3.65397 352.837 -1.63914 354.462 -0.561249C356.088 0.516639 358.167 0.249411 359.107 -1.1581Z" fill="#F2F2F2"/>
<path d="M323.494 138.027C324.434 136.619 323.877 134.604 322.252 133.527C320.626 132.449 318.547 132.716 317.608 134.123C316.668 135.531 317.224 137.546 318.85 138.624C320.475 139.701 322.555 139.434 323.494 138.027Z" fill="white"/>
<path d="M295.186 74.6097C293.289 74.6042 291.461 73.9022 290.05 72.6378C288.64 71.3734 287.747 69.6354 287.541 67.7559L283.139 27.0054C282.923 24.9821 283.521 22.9559 284.801 21.3714C286.082 19.7869 287.941 18.7734 289.971 18.5533L420.684 4.52548C422.714 4.30981 424.747 4.90555 426.337 6.182C427.927 7.45845 428.944 9.31137 429.165 11.3342L433.567 52.0845C433.783 54.1079 433.185 56.1341 431.905 57.7187C430.624 59.3033 428.765 60.3169 426.735 60.537L296.022 74.5648C295.744 74.5947 295.465 74.6097 295.186 74.6097Z" fill="#E6E6E6"/>
<path d="M419.244 6.41725C418.999 6.41733 418.753 6.43052 418.509 6.45674L292.509 19.9788C291.628 20.0734 290.774 20.3399 289.996 20.7633C289.218 21.1867 288.532 21.7587 287.976 22.4464C287.42 23.1342 287.006 23.9244 286.756 24.7719C286.507 25.6193 286.427 26.5075 286.522 27.3856L288.748 47.9894C289.108 51.3203 290.122 54.548 291.733 57.488C293.345 60.4281 295.521 63.0231 298.139 65.1248C300.756 67.2265 303.764 68.7937 306.989 69.737C310.214 70.6804 313.594 70.9813 316.936 70.6226L405.535 61.1143C408.867 60.7567 412.096 59.7486 415.036 58.1475C417.977 56.5464 420.573 54.3836 422.675 51.7827C424.777 49.1818 426.345 46.1936 427.289 42.9888C428.232 39.784 428.533 36.4254 428.175 33.1046L425.94 12.4235C425.762 10.7762 424.981 9.25232 423.745 8.14397C422.509 7.03562 420.907 6.42077 419.244 6.41725Z" fill="white"/>
<path d="M392.71 27.8598L322.287 35.4175C322.086 35.4394 321.882 35.4215 321.688 35.3649C321.493 35.3082 321.312 35.2139 321.154 35.0874C320.996 34.9608 320.865 34.8045 320.768 34.6274C320.671 34.4502 320.609 34.2557 320.588 34.055C320.566 33.8543 320.584 33.6512 320.641 33.4575C320.699 33.2638 320.793 33.0833 320.921 32.9261C321.048 32.769 321.205 32.6384 321.383 32.5418C321.56 32.4452 321.756 32.3845 321.957 32.3631L392.381 24.8054C392.582 24.7836 392.786 24.8015 392.98 24.8581C393.174 24.9148 393.356 25.0091 393.514 25.1356C393.671 25.2621 393.803 25.4185 393.9 25.5956C393.997 25.7727 394.058 25.9672 394.08 26.168C394.102 26.3687 394.083 26.5717 394.026 26.7654C393.969 26.9591 393.874 27.1397 393.747 27.2968C393.62 27.454 393.463 27.5846 393.285 27.6812C393.107 27.7778 392.912 27.8385 392.71 27.8598Z" fill="#6C63FF"/>
<path d="M393.723 37.2341L323.3 44.7918C322.893 44.8354 322.486 44.7164 322.168 44.4608C321.85 44.2052 321.646 43.8341 321.603 43.4291C321.559 43.024 321.678 42.6183 321.935 42.301C322.191 41.9838 322.563 41.781 322.97 41.7374L393.393 34.1797C393.8 34.1361 394.207 34.2552 394.525 34.5108C394.843 34.7663 395.047 35.1375 395.09 35.5425C395.134 35.9475 395.015 36.3533 394.758 36.6705C394.502 36.9878 394.13 37.1905 393.723 37.2341Z" fill="#6C63FF"/>
<path d="M332.519 53.2849L324.312 54.1656C323.906 54.2092 323.499 54.0902 323.181 53.8346C322.862 53.579 322.659 53.2079 322.615 52.8029C322.571 52.3978 322.691 51.992 322.947 51.6748C323.204 51.3576 323.576 51.1548 323.982 51.1112L332.189 50.2305C332.391 50.2086 332.594 50.2265 332.789 50.2831C332.983 50.3398 333.165 50.4341 333.322 50.5607C333.48 50.6872 333.611 50.8435 333.709 51.0207C333.806 51.1978 333.867 51.3923 333.889 51.593C333.91 51.7937 333.892 51.9968 333.835 52.1905C333.778 52.3842 333.683 52.5647 333.556 52.7219C333.429 52.879 333.272 53.0096 333.094 53.1062C332.916 53.2028 332.721 53.2635 332.519 53.2849Z" fill="#6C63FF"/>
<path d="M292.415 28.7249C293.947 28.7249 295.189 27.487 295.189 25.96C295.189 24.433 293.947 23.1951 292.415 23.1951C290.883 23.1951 289.641 24.433 289.641 25.96C289.641 27.487 290.883 28.7249 292.415 28.7249Z" fill="#3F3D56"/>
<path d="M416.556 14.9002C418.088 14.9002 419.33 13.6623 419.33 12.1353C419.33 10.6083 418.088 9.37036 416.556 9.37036C415.024 9.37036 413.782 10.6083 413.782 12.1353C413.782 13.6623 415.024 14.9002 416.556 14.9002Z" fill="#3F3D56"/>
<path d="M379.051 71.6631C378.796 71.4399 378.594 71.163 378.46 70.8524C378.326 70.5418 378.263 70.2053 378.276 69.8674C378.415 65.8513 377.751 61.8478 376.323 58.0899C376.202 57.774 376.154 57.4352 376.18 57.0981C376.207 56.761 376.309 56.434 376.478 56.141C376.641 55.8594 376.863 55.6167 377.129 55.4298C377.396 55.243 377.7 55.1165 378.021 55.0593C381.245 53.12 384.551 52.5755 387.847 53.4414C388.379 53.3634 388.921 53.4768 389.376 53.7613C389.832 54.0458 390.17 54.4827 390.331 54.9936C391.666 59.3124 392.409 63.7913 392.538 68.3085C392.551 68.8504 392.367 69.3786 392.02 69.7961C391.673 70.2136 391.187 70.4923 390.65 70.581L380.894 72.1874C380.567 72.242 380.232 72.2232 379.913 72.1325C379.595 72.0418 379.3 71.8814 379.051 71.6631Z" fill="#6C63FF"/>
<path d="M379.918 59.962L388.129 58.6099C388.196 58.599 388.261 58.5749 388.319 58.539C388.377 58.503 388.428 58.4561 388.467 58.4007C388.507 58.3453 388.536 58.2826 388.551 58.2162C388.567 58.1498 388.569 58.081 388.558 58.0138C388.547 57.9465 388.523 57.8821 388.486 57.8242C388.45 57.7663 388.403 57.7161 388.347 57.6765C388.292 57.6368 388.229 57.6085 388.162 57.5932C388.096 57.5778 388.026 57.5757 387.959 57.587L379.748 58.939C379.612 58.9617 379.491 59.0372 379.411 59.1489C379.331 59.2606 379.298 59.3994 379.321 59.5348C379.343 59.6703 379.419 59.7913 379.531 59.8714C379.642 59.9515 379.782 59.9841 379.918 59.962Z" fill="white"/>
<path d="M380.596 64.0541L388.807 62.702C388.943 62.6796 389.065 62.6042 389.145 62.4925C389.225 62.3807 389.258 62.2417 389.235 62.106C389.213 61.9704 389.137 61.8492 389.025 61.7691C388.913 61.689 388.773 61.6566 388.637 61.6791L380.426 63.0311C380.359 63.0421 380.294 63.0662 380.236 63.1021C380.178 63.138 380.127 63.185 380.087 63.2404C380.047 63.2958 380.019 63.3584 380.003 63.4248C379.988 63.4912 379.986 63.56 379.997 63.6273C380.008 63.6946 380.032 63.759 380.068 63.8169C380.105 63.8747 380.152 63.9249 380.207 63.9646C380.263 64.0042 380.326 64.0325 380.393 64.0479C380.459 64.0633 380.528 64.0654 380.596 64.0541Z" fill="white"/>
<path d="M381.274 68.1459L389.485 66.7938C389.621 66.7714 389.743 66.696 389.823 66.5843C389.903 66.4725 389.936 66.3335 389.914 66.1978C389.891 66.0622 389.815 65.941 389.703 65.8609C389.591 65.7808 389.452 65.7484 389.316 65.7709L381.105 67.1229C381.037 67.134 380.973 67.1582 380.915 67.1942C380.857 67.2301 380.806 67.2771 380.766 67.3325C380.727 67.3878 380.698 67.4504 380.683 67.5167C380.667 67.583 380.665 67.6517 380.676 67.7189C380.687 67.7861 380.712 67.8504 380.748 67.9082C380.784 67.966 380.831 68.0162 380.886 68.0558C380.942 68.0955 381.005 68.1238 381.071 68.1393C381.138 68.1547 381.207 68.157 381.274 68.1459Z" fill="white"/>
</g>
</g>
<defs>
<clipPath id="clip0_301_831">
<rect width="253.51" height="217.605" fill="white" transform="translate(246.289 -6.32056)"/>
</clipPath>
</defs>
</svg>
