<svg width="725" height="180" viewBox="0 0 725 180" fill="none" xmlns="http://www.w3.org/2000/svg">
<path d="M0 8C0 3.58172 3.58172 0 8 0H717C721.418 0 725 3.58172 725 8V180H0V8Z" fill="#D0DCFF"/>
<mask id="mask0_6_324" style="mask-type:alpha" maskUnits="userSpaceOnUse" x="0" y="0" width="725" height="180">
<path d="M0 8C0 3.58172 3.58172 0 8 0H717C721.418 0 725 3.58172 725 8V180H0V8Z" fill="#B9C4E6"/>
</mask>
<g mask="url(#mask0_6_324)">
<path d="M489.655 24.2819C522.363 60.1413 535.805 125.104 521.019 176.035C506.681 226.965 464.116 263.864 424.687 272.179C385.258 279.975 348.965 259.187 308.64 239.438C268.763 219.689 225.301 202.02 211.859 166.16C198.417 130.821 214.996 77.8111 243.671 42.9911C272.347 8.17118 313.12 -8.45926 359.27 -13.1366C405.42 -18.3336 456.947 -11.5775 489.655 24.2819Z" fill="#E7EDFF"/>
<g clip-path="url(#clip0_6_324)">
<path d="M491.472 143.077H304.444C303.773 143.077 303.13 142.81 302.656 142.337C302.182 141.864 301.916 141.222 301.915 140.552V24.8621H494V140.552C493.999 141.222 493.733 141.864 493.259 142.337C492.785 142.81 492.142 143.077 491.472 143.077Z" fill="#E6E6E6"/>
<path d="M485.988 135.848H309.928C309.25 135.847 308.6 135.578 308.121 135.099C307.642 134.62 307.372 133.972 307.372 133.295V38.0198C307.372 37.343 307.642 36.6941 308.121 36.2156C308.6 35.737 309.25 35.4678 309.928 35.467H485.988C486.665 35.4678 487.315 35.737 487.794 36.2155C488.273 36.6941 488.543 37.343 488.544 38.0198V133.295C488.543 133.972 488.273 134.62 487.794 135.099C487.315 135.578 486.665 135.847 485.988 135.848Z" fill="white"/>
<path d="M493.918 28.4344H301.833V22.5253C301.834 21.8558 302.1 21.2139 302.574 20.7405C303.048 20.267 303.691 20.0007 304.362 20H491.39C492.06 20.0007 492.703 20.267 493.177 20.7405C493.651 21.2139 493.917 21.8558 493.918 22.5253L493.918 28.4344Z" fill="#6C63FF"/>
<path d="M308.037 25.8169C308.871 25.8169 309.547 25.1417 309.547 24.3087C309.547 23.4758 308.871 22.8005 308.037 22.8005C307.202 22.8005 306.526 23.4758 306.526 24.3087C306.526 25.1417 307.202 25.8169 308.037 25.8169Z" fill="white"/>
<path d="M313.768 25.8169C314.602 25.8169 315.279 25.1417 315.279 24.3087C315.279 23.4758 314.602 22.8005 313.768 22.8005C312.934 22.8005 312.258 23.4758 312.258 24.3087C312.258 25.1417 312.934 25.8169 313.768 25.8169Z" fill="white"/>
<path d="M319.501 25.8169C320.335 25.8169 321.011 25.1417 321.011 24.3087C321.011 23.4758 320.335 22.8005 319.501 22.8005C318.667 22.8005 317.991 23.4758 317.991 24.3087C317.991 25.1417 318.667 25.8169 319.501 25.8169Z" fill="white"/>
<path d="M343.612 52.5515H325.466V60.5729H343.612V52.5515Z" fill="#E6E6E6"/>
<path d="M379.904 69.1885H361.758V77.2099H379.904V69.1885Z" fill="#E6E6E6"/>
<path d="M343.612 94.144H325.466V102.165H343.612V94.144Z" fill="#6C63FF"/>
<path d="M379.904 110.781H361.758V118.803H379.904V110.781Z" fill="#6C63FF"/>
<path d="M470.335 119.1H452.189V127.121H470.335V119.1Z" fill="#6C63FF"/>
<path d="M452.189 85.8257H434.043V93.8471H452.189V85.8257Z" fill="#E6E6E6"/>
<path d="M416.195 85.8257H379.904V93.8471H416.195V85.8257Z" fill="#6C63FF"/>
<path d="M416.195 43.9358H379.904V51.9572H416.195V43.9358Z" fill="#6C63FF"/>
<path d="M307.32 35.3203V136.034H488.778V35.3203L307.32 35.3203ZM488.183 43.6637H470.692V35.9145H488.183V43.6637ZM380.261 102.067V94.3175H415.838V102.067H380.261ZM415.838 102.661V110.41H380.261V102.661H415.838ZM415.838 69.2877V77.0367H380.261V69.2877H415.838ZM380.261 68.6935V60.9443H415.838V68.6935H380.261ZM380.261 85.38V77.6309H415.838V85.38H380.261ZM415.838 85.9742V93.7234H380.261V85.9742H415.838ZM379.666 77.0367H362.174V69.2877H379.666V77.0367ZM379.666 77.6309V85.38H362.174V77.6309H379.666ZM379.666 85.9742V93.7234H362.174V85.9742H379.666ZM379.666 94.3175V102.067H362.174V94.3175H379.666ZM416.433 94.3175H433.924V102.067H416.433L416.433 94.3175ZM416.433 93.7234V85.9742H433.924V93.7234H416.433ZM416.433 85.38V77.6309H433.924V85.38H416.433ZM416.433 77.0367V69.2877H433.924V77.0367H416.433ZM416.433 68.6935V60.9443H433.924V68.6935H416.433ZM416.433 60.3502V52.601H433.924V60.3502H416.433ZM415.838 60.3502H380.261V52.601H415.838L415.838 60.3502ZM379.666 60.3502H362.174V52.601H379.666V60.3502ZM379.666 60.9443V68.6935H362.174V60.9443H379.666ZM361.579 68.6935H344.088V60.9443H361.579L361.579 68.6935ZM361.579 69.2877V77.0367H344.088V69.2877H361.579ZM361.579 77.6309V85.38H344.088V77.6309H361.579ZM361.579 85.9742V93.7234H344.088V85.9742H361.579ZM361.579 94.3175V102.067H344.088V94.3175H361.579ZM361.579 102.661V110.41H344.088V102.661H361.579ZM362.174 102.661H379.666V110.41H362.174V102.661ZM379.666 111.004V118.753H362.174V111.004H379.666ZM380.261 111.004H415.838V118.753H380.261V111.004ZM416.433 111.004H433.924V118.753H416.433L416.433 111.004ZM416.433 110.41V102.661H433.924V110.41H416.433ZM434.519 102.661H452.011V110.41H434.519L434.519 102.661ZM434.519 102.067V94.3175H452.011V102.067H434.519ZM434.519 93.7234V85.9742H452.011V93.7234H434.519ZM434.519 85.38V77.6309H452.011V85.38H434.519ZM434.519 77.0367V69.2877H452.011V77.0367H434.519ZM434.519 68.6935V60.9443H452.011V68.6935H434.519ZM434.519 60.3502V52.601H452.011V60.3502H434.519ZM434.519 52.0068V44.2578H452.011V52.0068H434.519ZM433.924 52.0068H416.433V44.2578H433.924L433.924 52.0068ZM415.838 52.0068H380.261V44.2578H415.838L415.838 52.0068ZM379.666 52.0068H362.174V44.2578H379.666V52.0068ZM361.579 52.0068H344.088V44.2578H361.579L361.579 52.0068ZM361.579 52.601V60.3502H344.088V52.601H361.579ZM343.493 60.3502H326.002V52.601H343.493V60.3502ZM343.493 60.9443V68.6935H326.002V60.9443H343.493ZM343.493 69.2877V77.0367H326.002V69.2877H343.493ZM343.493 77.6309V85.38H326.002V77.6309H343.493ZM343.493 85.9742V93.7234H326.002V85.9742H343.493ZM343.493 94.3175V102.067H326.002V94.3175H343.493ZM343.493 102.661V110.41H326.002V102.661H343.493ZM343.493 111.004V118.753H326.002V111.004H343.493ZM344.088 111.004H361.579V118.753H344.088L344.088 111.004ZM361.579 119.347V127.097H344.088V119.347H361.579ZM362.174 119.347H379.666V127.097H362.174V119.347ZM380.261 119.347H415.838V127.097H380.261V119.347ZM416.433 119.347H433.924V127.097H416.433L416.433 119.347ZM434.519 119.347H452.011V127.097H434.519L434.519 119.347ZM434.519 118.753V111.004H452.011V118.753H434.519ZM452.606 111.004H470.097V118.753H452.606V111.004ZM452.606 110.41V102.661H470.097V110.41H452.606ZM452.606 102.067V94.3175H470.097V102.067H452.606ZM452.606 93.7234V85.9742H470.097V93.7234H452.606ZM452.606 85.38V77.6309H470.097V85.38H452.606ZM452.606 77.0367V69.2877H470.097V77.0367H452.606ZM452.606 68.6935V60.9443H470.097V68.6935H452.606ZM452.606 60.3502V52.601H470.097V60.3502H452.606ZM452.606 52.0068V44.2578H470.097V52.0068H452.606ZM452.606 43.6637V35.9145H470.097V43.6637L452.606 43.6637ZM452.011 43.6637H434.519V35.9145H452.011L452.011 43.6637ZM433.924 43.6637H416.433V35.9145H433.924L433.924 43.6637ZM415.838 43.6637H380.261V35.9145H415.838L415.838 43.6637ZM379.666 43.6637H362.174V35.9145H379.666V43.6637ZM361.579 43.6637H344.088V35.9145H361.579L361.579 43.6637ZM343.493 43.6637H326.002V35.9145H343.493V43.6637ZM343.493 44.2578V52.0068H326.002V44.2578H343.493ZM325.407 52.0068H307.915V44.2578H325.407L325.407 52.0068ZM325.407 52.601V60.3502H307.915V52.601H325.407ZM325.407 60.9443V68.6935H307.915V60.9443H325.407ZM325.407 69.2877V77.0367H307.915V69.2877H325.407ZM325.407 77.6309V85.38H307.915V77.6309H325.407ZM325.407 85.9742V93.7234H307.915V85.9742H325.407ZM325.407 94.3175V102.067H307.915V94.3175H325.407ZM325.407 102.661V110.41H307.915V102.661H325.407ZM325.407 111.004V118.753H307.915V111.004H325.407ZM325.407 119.347V127.097H307.915V119.347H325.407ZM326.002 119.347H343.493V127.097H326.002L326.002 119.347ZM343.493 127.691V135.44H326.002V127.691H343.493ZM344.088 127.691H361.579V135.44H344.088L344.088 127.691ZM362.174 127.691H379.666V135.44H362.174L362.174 127.691ZM380.261 127.691H415.838V135.44H380.261L380.261 127.691ZM416.433 127.691H433.924V135.44H416.433V127.691ZM434.519 127.691H452.011V135.44H434.519L434.519 127.691ZM452.606 127.691H470.097V135.44H452.606V127.691ZM452.606 127.097V119.347H470.097V127.097H452.606ZM470.692 119.347H488.183V127.097H470.692V119.347ZM470.692 118.753V111.004H488.183V118.753H470.692ZM470.692 110.41V102.661H488.183V110.41H470.692ZM470.692 102.067V94.3175H488.183V102.067H470.692ZM470.692 93.7234V85.9742H488.183V93.7234H470.692ZM470.692 85.38V77.6309H488.183V85.38H470.692ZM470.692 77.0367V69.2877H488.183V77.0367H470.692ZM470.692 68.6935V60.9443H488.183V68.6935H470.692ZM470.692 60.3502V52.601H488.183V60.3502H470.692ZM470.692 52.0068V44.2578H488.183V52.0068H470.692ZM325.407 35.9145V43.6637H307.915V35.9145H325.407ZM307.915 127.691H325.407V135.44H307.915V127.691ZM470.692 135.44V127.691H488.183V135.44H470.692Z" fill="#E6E6E6"/>
<path d="M257.925 89.8895C257.925 89.8895 248.745 87.7769 243.696 91.65C238.647 95.5232 250.122 104.326 250.122 104.326L257.925 89.8895Z" fill="#2F2E41"/>
<path d="M267.418 140.41C267.234 139.926 267.159 139.408 267.197 138.892C267.236 138.375 267.387 137.874 267.64 137.422C267.894 136.971 268.243 136.58 268.664 136.278C269.085 135.976 269.567 135.77 270.076 135.674L271.932 123.229L276.807 127.593L274.298 138.742C274.402 139.607 274.185 140.481 273.688 141.197C273.191 141.913 272.448 142.422 271.6 142.628C270.752 142.833 269.858 142.721 269.087 142.312C268.316 141.904 267.723 141.227 267.418 140.41Z" fill="#FFB8B8"/>
<path d="M267.445 134.708C267.445 134.708 271.813 137.056 270.469 146.452L269.125 182.019L261.701 198.233L255.317 196.555L259.382 183.361L254.007 160.209L253.301 202.26L247.254 203.266L238.552 133.365L249.639 128.332L267.445 134.708Z" fill="#2F2E41"/>
<path d="M251.834 85.8978C256.617 85.8978 260.493 82.0259 260.493 77.2498C260.493 72.4736 256.617 68.6018 251.834 68.6018C247.052 68.6018 243.175 72.4736 243.175 77.2498C243.175 82.0259 247.052 85.8978 251.834 85.8978Z" fill="#FFB8B8"/>
<path d="M256.863 88.2349L252.495 95.2812L246.111 88.9059L234.178 97.2489C233.759 97.5409 233.452 97.9659 233.306 98.4547C233.16 98.9436 233.185 99.4672 233.376 99.9402C235.212 104.474 239.913 117.874 238.552 133.365C238.552 133.365 247.623 131.016 257.031 133.701C266.438 136.385 268.79 135.379 268.79 135.379C268.79 135.379 266.438 118.266 267.782 114.575C268.896 111.513 271.167 101.295 271.909 97.899C271.979 97.5782 271.944 97.2435 271.809 96.9442C271.674 96.6449 271.446 96.397 271.159 96.2369L256.863 88.2349Z" fill="#6C63FF"/>
<path d="M270.813 96.2776C271.182 96.2249 271.558 96.3084 271.87 96.5124C272.183 96.7165 272.41 97.0272 272.509 97.3863L278.197 117.897L276.853 130.312L270.469 129.306L271.141 120.582L266.438 109.509L269.542 97.4147C269.618 97.121 269.779 96.8562 270.005 96.6538C270.231 96.4514 270.512 96.3205 270.813 96.2776Z" fill="#6C63FF"/>
<path d="M245.138 65.1101C245.716 64.1313 246.553 63.3309 247.557 62.7972C248.561 62.2636 249.694 62.0176 250.829 62.0862C252.017 62.235 253.176 62.559 254.268 63.0477L259.929 65.2529C261.393 65.8236 262.998 66.5226 263.633 67.9588C264.223 69.2918 263.783 70.8313 263.338 72.2191L261.22 78.8159C260.985 77.3229 260.583 75.861 260.02 74.4582C259.404 73.0789 258.431 71.8071 257.086 71.1179C255.616 70.3646 253.883 70.3802 252.232 70.4595C249.894 70.5719 247.353 70.8689 245.692 72.5157C244.81 73.4509 244.212 74.6168 243.968 75.878C243.727 77.1324 243.606 78.4067 243.606 79.6839C242.648 78.0382 241.84 76.3092 241.194 74.5181C240.662 73.1844 240.359 71.7708 240.297 70.3365C240.242 68.89 240.722 67.4738 241.647 66.3591C242.603 65.2917 244.162 64.7154 245.532 65.138" fill="#2F2E41"/>
<path d="M240.323 145.339C240.506 144.855 240.582 144.337 240.544 143.821C240.505 143.305 240.354 142.803 240.101 142.352C239.847 141.9 239.498 141.51 239.077 141.208C238.656 140.906 238.174 140.699 237.664 140.604L235.809 128.158L230.934 132.523L233.443 143.672C233.339 144.537 233.556 145.41 234.053 146.126C234.55 146.842 235.293 147.352 236.141 147.557C236.989 147.763 237.883 147.651 238.654 147.242C239.424 146.833 240.018 146.156 240.323 145.339Z" fill="#FFB8B8"/>
<path d="M234.3 97.1303C233.791 97.215 233.326 97.4709 232.983 97.8555C232.64 98.2402 232.439 98.7304 232.413 99.2449L230.488 137.694H237.544L239.896 117.226L236.903 98.9924C236.854 98.6992 236.749 98.4185 236.592 98.1662C236.435 97.9138 236.23 97.6949 235.988 97.522C235.746 97.349 235.473 97.2254 235.183 97.1582C234.893 97.091 234.593 97.0815 234.3 97.1303Z" fill="#6C63FF"/>
</g>
</g>
<defs>
<clipPath id="clip0_6_324">
<rect width="270" height="189" fill="white" transform="translate(224 20)"/>
</clipPath>
</defs>
</svg>
