<svg width="540" height="143" viewBox="0 0 540 143" fill="none" xmlns="http://www.w3.org/2000/svg">
<mask id="mask0_408_927" style="mask-type:alpha" maskUnits="userSpaceOnUse" x="0" y="0" width="540" height="143">
<rect x="0.5" y="0.5" width="539" height="142" rx="7.5" fill="#D0DCFF" stroke="#EDEDED"/>
</mask>
<g mask="url(#mask0_408_927)">
<path d="M563.91 -4.17922C593.768 21.4217 606.038 67.8003 592.541 104.161C579.452 140.522 540.597 166.865 504.604 172.801C468.611 178.367 435.482 163.526 398.671 149.427C362.269 135.327 322.596 122.713 310.326 97.1115C298.055 71.8816 313.189 34.0367 339.365 9.17781C365.541 -15.6811 402.761 -27.554 444.889 -30.8933C487.017 -34.6036 534.052 -29.7802 563.91 -4.17922Z" fill="#E7EDFF"/>
</g>
<path d="M528.123 80.9441L527.496 85.9705L525.941 98.4551H494.704C494.948 95.6569 495.281 91.6293 495.638 87.2814C495.673 86.8472 495.71 86.4102 495.745 85.9705C496.638 75.0411 497.616 62.6732 497.616 62.6732L501.722 63.444L509.69 64.9367L512.937 65.5447L521.631 67.1758C525.966 67.9873 528.947 74.311 528.123 80.9441Z" fill="#F2F2F2"/>
<path d="M504.495 42.4482L508.336 49.221L500.953 54.4928L497.803 46.1678L504.495 42.4482Z" fill="#FFB6B6"/>
<path d="M499.604 48.8556C504.86 48.8556 509.121 44.5629 509.121 39.2676C509.121 33.9723 504.86 29.6796 499.604 29.6796C494.349 29.6796 490.088 33.9723 490.088 39.2676C490.088 44.5629 494.349 48.8556 499.604 48.8556Z" fill="#FFB6B6"/>
<path d="M498.921 41.411C498.165 40.2523 498.462 39.6463 497.829 39.2205C497.829 39.2205 497.575 39.0491 495.753 38.9514C495.345 35.9935 494.836 35.6348 494.836 35.6348C494.249 35.2214 493.378 35.3557 492.836 35.6086C491.69 36.1433 491.823 37.2985 491.052 37.5196C489.986 37.8249 488.047 36.1034 487.856 34.1327C487.7 32.5251 488.728 30.9638 489.135 31.0464C489.54 31.1283 490.508 29.8834 491.03 29.9026C491.387 29.9157 492.845 29.2771 493.237 29.327C493.666 29.3815 495.078 30.1242 495.137 29.9545C495.546 28.7754 495.426 28.4483 495.773 28.111C496.388 27.5133 497.394 27.9295 498.972 28.153C502.22 28.6127 502.787 27.5339 504.451 28.2651C505.291 28.6345 505.995 29.6307 507.367 31.608C509.287 34.3732 510.247 35.7559 510.253 37.3685C510.259 39.0131 509.469 38.9087 509.122 41.3433C508.735 44.0535 509.556 45.2928 508.659 46.1733C507.966 46.8538 506.557 47.0153 505.816 46.4181C504.548 45.3956 506.207 42.9282 504.805 41.1255C503.943 40.019 502.212 39.5266 501.418 40.0736C500.521 40.692 501.015 42.5074 500.385 42.6795C499.844 42.8269 499.053 41.6129 498.921 41.411Z" fill="#2F2E41"/>
<path d="M521.089 79.1739C520.823 83.7466 519.769 85.1902 519.4 90.5905C519.319 91.7761 519.271 93.1523 519.271 94.7936C519.271 95.212 519.273 95.6165 519.273 96.0118C519.273 96.8532 519.257 97.6484 519.16 98.455C519.086 99.0989 518.959 99.7475 518.749 100.431H498.253C498.251 100.426 498.251 100.422 498.249 100.417C498.129 99.8917 498.053 99.3895 497.995 98.9084C497.977 98.7549 497.96 98.6038 497.947 98.455C497.928 98.2806 497.912 98.1087 497.896 97.939C497.833 97.2624 497.771 96.6232 497.623 96.0118C497.425 95.1678 497.065 94.3728 496.327 93.6057C496.025 93.2918 495.722 93.0478 495.427 92.8339C495.369 92.7943 495.314 92.7548 495.256 92.7153C494.439 92.1504 493.667 91.7435 492.997 90.5905C492.986 90.5743 492.977 90.5557 492.967 90.5394C492.852 90.3372 492.552 89.8071 492.335 89.1005C492.107 88.3658 491.968 87.4429 492.218 86.4991C492.811 84.2627 495.007 84.0396 496.802 81.7799C496.996 81.5359 497.187 81.2662 497.37 80.9663C498.182 79.6365 498.401 78.4649 498.659 77.0724C498.701 76.8468 498.738 76.6237 498.768 76.4076C498.791 76.2448 498.812 76.0844 498.828 75.9263C498.971 74.5989 498.902 73.4551 498.733 72.4323C498.184 69.0824 496.564 67.0087 497.709 64.0029C498.069 63.0591 498.579 62.35 499.093 61.7433C500.182 60.4577 501.301 59.6232 501.108 57.9634C500.911 56.2896 499.652 56.0594 499.511 54.5971C499.439 53.8579 499.679 53.0792 500.129 52.3143V52.312C501.569 49.8501 505.164 47.5835 507.448 47.6556C507.87 47.6673 508.244 47.7625 508.555 47.9462C509.684 48.6157 509.213 50.0779 510.941 52.1284C512.226 53.651 513.68 54.2601 514.232 54.5483C516.417 55.6968 518.193 59.0839 519.4 63.4148C519.409 63.4473 519.418 63.4798 519.428 63.5148C520.173 66.2277 520.699 69.3079 520.96 72.4323C521.07 73.755 521.135 75.0848 521.149 76.4005C521.161 77.4513 521.137 78.3627 521.089 79.1739Z" fill="#6C63FF"/>
<path d="M505.741 94.8401L505.323 96.0118L505.06 96.7463L504.451 98.455L503.745 100.431H499.206L499.968 98.455L500.321 97.5344L500.907 96.0118L501.89 93.4546L505.741 94.8401Z" fill="#FFB6B6"/>
<path d="M519.471 63.0149C519.46 63.1661 519.444 63.3334 519.427 63.5148C519.248 65.3606 518.823 68.664 518.202 72.4323C517.875 74.4199 517.492 76.5378 517.06 78.6416C516.133 83.1817 514.979 87.6522 513.675 90.5905C513.442 91.1206 513.202 91.5995 512.958 92.0226C512.771 92.3458 512.575 92.6642 512.369 92.978C511.705 94.0079 510.96 94.9843 510.187 95.8956C510.157 95.9351 510.122 95.9723 510.088 96.0118C509.963 96.1605 509.834 96.3071 509.705 96.4535C509.072 97.1718 508.426 97.8413 507.801 98.455C507.04 99.2036 506.306 99.8662 505.648 100.431H498.279L498.249 100.417L497.187 99.9428C497.187 99.9428 497.49 99.5848 497.995 98.9084C498.099 98.7712 498.209 98.6201 498.33 98.455C498.477 98.2527 498.636 98.0296 498.807 97.7878C499.162 97.2811 499.566 96.686 500 96.0118C500.84 94.7076 501.797 93.1036 502.764 91.2462C502.875 91.0299 502.988 90.8114 503.101 90.5905C503.103 90.5836 503.108 90.5766 503.11 90.5697C503.302 90.193 503.491 89.8048 503.68 89.4096C505.284 86.0481 505.743 83.2584 505.874 82.3542C506.059 81.0756 506.315 79.2878 506.246 77.3211C506.2 76.024 506.013 74.6524 505.568 73.2901V73.2879C505.475 73.0019 505.371 72.716 505.254 72.4323C505.044 71.9232 504.795 71.4211 504.499 70.9259C503.196 68.7454 502.137 68.6547 501.294 66.2788C501.045 65.5745 500.48 63.9844 500.653 62.3059V62.3036C500.674 62.0967 500.708 61.8875 500.754 61.6782V61.6759C500.766 61.6178 500.782 61.5574 500.798 61.4993C500.93 60.9856 501.147 60.4764 501.477 59.9928C502.12 59.0537 502.999 58.4957 503.786 58.1633L503.789 58.161C504.698 57.7798 505.482 57.6984 505.635 57.6844C509.005 57.3823 511.62 60.237 513.048 61.7968C513.599 62.3989 514.105 62.9034 514.566 63.3148C518.158 66.5462 519.144 64.4818 519.4 63.4148C519.439 63.2498 519.46 63.108 519.471 63.0149Z" fill="#6C63FF"/>
<path d="M519.483 62.8942C519.483 62.9057 519.481 62.9452 519.471 63.0104C519.476 62.9754 519.478 62.9406 519.481 62.908C519.481 62.9011 519.481 62.8964 519.483 62.8942Z" fill="#6C63FF"/>
<path d="M501.158 107.517H377.475C376.326 107.517 375.389 108.459 375.389 109.617C375.389 110.777 376.326 111.718 377.475 111.718H501.158C502.307 111.718 503.242 110.777 503.242 109.617C503.242 108.459 502.307 107.517 501.158 107.517Z" fill="white"/>
<path d="M473.711 118.369H404.92C403.771 118.369 402.837 119.311 402.837 120.468C402.837 121.626 403.771 122.57 404.92 122.57H473.711C474.86 122.57 475.796 121.626 475.796 120.468C475.796 119.311 474.86 118.369 473.711 118.369Z" fill="white"/>
<path d="M391.238 42.8939L399.033 39.5887L402.376 46.4944L394.185 49.863L391.238 42.8939Z" fill="#FFB6B6"/>
<path opacity="0.1" d="M391.238 42.8939L399.033 39.5887L402.376 46.4944L394.185 49.863L391.238 42.8939Z" fill="black"/>
<path d="M392.346 40.2625L400.036 49.1893C400.036 49.1893 394.686 66.2007 389.337 67.7166C383.987 69.2324 374.124 76.6434 374.124 76.6434L361.754 68.5587L367.772 59.6319C367.772 59.6319 382.316 39.5887 386.161 39.5887C390.006 39.5887 392.346 40.2625 392.346 40.2625Z" fill="#6C63FF"/>
<path d="M381.956 98.455H364.056L362.924 96.9307L358.303 90.7072L357.24 89.2756C357.24 89.2756 353.228 81.8647 354.064 75.1275C354.9 68.3903 363.593 66.8744 363.593 66.8744H363.95L374.593 76.2964L373.957 85.0648L377.327 90.7072L381.956 98.455Z" fill="#2F2E41"/>
<path d="M367.722 98.455H362.924V91.2968L367.722 98.455Z" fill="#2F2E41"/>
<path d="M471.203 87.588L470.607 90.7073L469.125 98.4551H439.371C439.603 96.7186 439.921 94.2191 440.26 91.5208C440.294 91.2513 440.329 90.9802 440.362 90.7073C441.213 83.9246 442.144 76.2493 442.144 76.2493L446.056 76.7276L453.645 77.654L456.738 78.0313L465.02 79.0435C469.149 79.5471 471.989 83.4716 471.203 87.588Z" fill="#F2F2F2"/>
<path d="M513.312 98.4551H497.173C497.419 98.1637 497.558 97.9953 497.558 97.9953L502.396 97.1902L512.364 95.5328C512.364 95.5328 512.819 96.7169 513.312 98.4551Z" fill="#2F2E41"/>
<path d="M444.856 46.2628L451.875 56.2632L439.632 56.6316L438.318 47.2335L444.856 46.2628Z" fill="#A0616A"/>
<path opacity="0.1" d="M444.856 46.2628L451.875 56.2632L439.632 56.6316L438.318 47.2335L444.856 46.2628Z" fill="black"/>
<path d="M410.245 66.9828C409.344 64.3654 407.274 62.712 405.621 63.2897C403.967 63.8674 403.358 66.4572 404.259 69.0754C404.605 70.1262 405.195 71.0784 405.981 71.8521L409.936 82.8937L415.039 80.9135L410.598 70.2387C410.74 69.1405 410.619 68.0241 410.245 66.9828Z" fill="#A0616A"/>
<path d="M457.753 61.8872L457.743 72.0788L456.802 75.8433L454.866 83.586L453.457 90.7072L452.407 96.0128L452.032 97.9076C451.75 98.0979 451.469 98.2798 451.188 98.455H426.736C425.347 97.6145 424.57 96.961 424.57 96.961C424.57 96.961 424.954 96.5972 425.394 96.0128C426.136 95.0258 427.034 93.4089 426.484 91.8643C426.368 91.5409 426.338 91.1468 426.373 90.7072C426.597 87.8069 429.617 82.9022 429.617 82.9022L428.991 75.6226L428.717 72.4326L430.65 56.878L436.951 53.1877L438.039 53.0816L448.776 52.4972L453.214 52.7549L453.416 52.8105L457.753 61.8872Z" fill="#CCCCCC"/>
<path d="M458.229 98.4551H452.88L452.644 96.0128L452.639 95.964L454.154 95.8595L458.094 95.5884L458.162 97.0503L458.216 98.1721L458.229 98.4551Z" fill="#FFB6B6"/>
<path d="M459.546 64.3514L461.793 77.6354L459.96 90.7073L459.674 92.7419L459.169 96.3345L459.013 97.4394L459.018 97.559L459.057 98.4551H452.704L452.47 96.0128L452.45 95.7939L451.972 90.7915L451.964 90.7073L450.949 80.0996L452.938 72.4326L453.086 71.8684V71.8667L453.951 58.7393L453.281 52.7735L453.274 52.7179C453.287 52.7263 453.299 52.7348 453.312 52.7432C453.348 52.7651 453.383 52.787 453.416 52.8105C457.321 55.3067 459.648 59.6859 459.546 64.3514Z" fill="#CCCCCC"/>
<path d="M432.926 59.4235L430.483 56.8778C430.483 56.8778 425.254 59.2531 424.993 60.5709C424.732 61.8887 415.499 81.2434 415.499 81.2434L411.482 70.4338L406.253 73.9512C406.253 73.9512 410.449 90.7336 414.373 91.5215C418.297 92.3094 431.447 71.6579 431.447 71.6579L432.926 59.4235Z" fill="#CCCCCC"/>
<path d="M532.115 90.5905H341.882C339.19 90.5905 337 92.7989 337 95.5118C337 98.2247 339.19 100.431 341.882 100.431H532.115C534.808 100.431 537 98.2249 537 95.5118C537 92.7988 534.808 90.5905 532.115 90.5905Z" fill="white"/>
<path d="M456.639 75.5944L456.269 92.9837C456.233 94.667 454.869 96.0128 453.198 96.0128H421.449C419.817 96.0128 418.47 94.7278 418.381 93.0864L417.437 75.697C417.341 73.9237 418.742 72.4326 420.505 72.4326H453.568C455.29 72.4326 456.676 73.8592 456.639 75.5944Z" fill="#3F3D56"/>
<path d="M405.385 47.0916C409.58 47.0916 412.981 43.6651 412.981 39.4383C412.981 35.2114 409.58 31.7849 405.385 31.7849C401.19 31.7849 397.789 35.2114 397.789 39.4383C397.789 43.6651 401.19 47.0916 405.385 47.0916Z" fill="#FFB6B6"/>
<path d="M392.68 59.4635L393.516 68.5588L399.2 91.6337L394.29 93.3677L385.993 68.2219L384.848 58.1161L392.68 59.4635Z" fill="#FFB6B6"/>
<path d="M390.419 75.5944L390.05 92.9837C390.014 94.667 388.649 96.0128 386.978 96.0128H355.229C353.597 96.0128 352.25 94.7278 352.161 93.0864L351.218 75.697C351.121 73.9237 352.523 72.4326 354.285 72.4326H387.348C389.07 72.4326 390.456 73.8592 390.419 75.5944Z" fill="#3F3D56"/>
<path d="M400.105 96.1304C403.418 96.1304 406.104 94.9335 406.104 93.457C406.104 91.9805 403.418 90.7836 400.105 90.7836C396.792 90.7836 394.106 91.9805 394.106 93.457C394.106 94.9335 396.792 96.1304 400.105 96.1304Z" fill="#FFB6B6"/>
<path d="M380.895 60.8541L384.322 42.4521C384.322 42.4521 393.85 41.1047 394.185 44.3049C394.519 47.505 393.946 63.1447 393.946 63.1447L380.895 60.8541Z" fill="#6C63FF"/>
<path d="M402.319 40.6416C402.319 40.6416 407.018 38.9519 409 38.0427C410.982 37.1336 414.92 43.4747 415.007 40.1258C415.095 36.7768 413.734 35.3724 413.734 35.3724C413.734 35.3724 413.395 28.0461 406.069 28.9621C406.069 28.9621 407.68 25.2966 402.391 24.7298C397.101 24.163 388.872 37.0324 389.609 38.9556C390.346 40.8789 391.23 42.4689 389.139 44.5253C387.048 46.5817 383.133 58.1874 386.112 61.3104C389.09 64.4334 389.286 65.7886 387.245 67.7315C385.204 69.6744 380.38 73.899 385.596 74.6324C390.812 75.3658 385.119 74.818 389.007 71.3717C392.896 67.9254 398.571 68.0662 396.452 62.5368C394.333 57.0074 398.014 49.0839 397.554 47.8819C397.093 46.6799 398.585 39.0469 398.585 39.0469C398.585 39.0469 402.059 38.5327 402.319 40.6416Z" fill="#2F2E41"/>
<path d="M441.104 49.8824C445.671 49.8824 449.373 46.1524 449.373 41.5512C449.373 36.95 445.671 33.22 441.104 33.22C436.537 33.22 432.835 36.95 432.835 41.5512C432.835 46.1524 436.537 49.8824 441.104 49.8824Z" fill="#A0616A"/>
<path d="M441.764 30.3505C441.524 30.4912 441.204 30.2783 441.127 30.0101C441.05 29.7419 441.14 29.4571 441.228 29.1926L441.675 27.8612C441.991 26.917 442.327 25.9397 443.012 25.221C444.046 24.1362 445.69 23.8603 447.17 24.0602C449.07 24.3169 450.945 25.3537 451.829 27.0681C452.712 28.7824 452.336 31.1746 450.74 32.2442C453.015 34.8719 453.808 37.8004 453.683 41.2853C453.558 44.7703 449.788 47.9776 447.33 50.4326C446.781 50.0973 446.282 48.5261 446.584 47.9553C446.886 47.3845 446.454 46.7233 446.827 46.1975C447.201 45.6717 447.514 46.5089 447.136 45.9861C446.898 45.6563 447.828 44.8974 447.474 44.6999C445.759 43.7449 445.189 41.5915 444.112 39.9425C442.813 37.9535 440.59 36.6065 438.237 36.383C436.941 36.2599 435.572 36.4829 434.51 37.241C433.447 37.9991 432.76 39.3538 433.006 40.6417C432.368 39.989 432.05 39.0325 432.17 38.1244C432.29 37.2164 432.844 36.3766 433.63 35.9145C433.152 34.3241 433.561 32.4946 434.669 31.2639C435.777 30.0332 440.271 30.2428 441.889 30.5667L441.764 30.3505Z" fill="#2F2E41"/>
<path d="M442.015 36.4313C444.157 36.6643 445.704 38.534 447.01 40.2606C447.763 41.2559 448.552 42.3549 448.533 43.6061C448.514 44.871 447.674 45.956 447.273 47.1548C446.617 49.1143 447.256 51.4456 448.817 52.7882C447.275 53.0831 445.608 51.9179 445.341 50.3591C445.031 48.5444 446.397 46.793 446.235 44.9589C446.092 43.343 444.829 42.0994 443.754 40.8912C442.68 39.683 441.671 38.0797 442.165 36.5358L442.015 36.4313Z" fill="#2F2E41"/>
<path d="M474.042 91.6435C471.92 92.8595 470.823 94.9484 471.591 96.3089C472.359 97.6694 474.702 97.7862 476.825 96.5694C477.679 96.0951 478.409 95.4215 478.952 94.605L487.878 89.3382L485.336 85.1704L476.806 90.805C475.831 90.8581 474.884 91.1456 474.042 91.6435Z" fill="#FFB6B6"/>
<path d="M504.265 53.0217C503.998 52.9152 501.658 52.0222 499.521 53.2012C497.066 54.5557 496.687 57.6476 496.554 58.732C496.247 61.2371 497.152 61.7986 497.343 64.3347C497.7 69.0795 498.643 63.6666 497.138 65.8324C496.617 66.5821 491.296 78.1993 488.362 80.4749C482.655 84.9005 479.031 88.0172 479.031 88.0172L483.168 92.5451C483.168 92.5451 489.706 90.7901 495.484 87.0099C501.411 83.1323 504.375 81.1936 506.667 77.4008C506.865 77.0741 511.589 68.9909 509.052 60.0528C508.473 58.0141 507.413 54.2786 504.265 53.0217Z" fill="#6C63FF"/>
<path d="M525.628 75.5944L525.258 92.9837C525.222 94.667 523.857 96.0128 522.186 96.0128H490.437C488.806 96.0128 487.459 94.7278 487.369 93.0864L486.426 75.697C486.33 73.9237 487.731 72.4326 489.494 72.4326H522.556C524.279 72.4326 525.665 73.8592 525.628 75.5944Z" fill="#3F3D56"/>
</svg>
