<svg width="541" height="144" viewBox="0 0 541 144" fill="none" xmlns="http://www.w3.org/2000/svg">
<mask id="mask0_408_884" style="mask-type:alpha" maskUnits="userSpaceOnUse" x="0" y="1" width="540" height="143">
<rect x="0.5" y="1.5" width="539" height="142" rx="7.5" fill="#D0DCFF" stroke="#EDEDED"/>
</mask>
<g mask="url(#mask0_408_884)">
<path d="M558.727 -2.85448C587.869 22.1251 599.845 67.378 586.671 102.856C573.897 138.334 535.973 164.038 500.843 169.83C465.713 175.261 433.378 160.78 397.45 147.023C361.921 133.266 323.198 120.957 311.222 95.9778C299.246 71.3602 314.016 34.4339 339.565 10.1783C365.114 -14.0772 401.442 -25.6619 442.559 -28.9201C483.677 -32.5404 529.585 -27.8341 558.727 -2.85448Z" fill="#E7EDFF"/>
</g>
<mask id="mask1_408_884" style="mask-type:alpha" maskUnits="userSpaceOnUse" x="0" y="0" width="541" height="143">
<rect x="0.5" y="0.5" width="540" height="142" rx="7.5" fill="#F4F3FE" stroke="#265EF5"/>
</mask>
<g mask="url(#mask1_408_884)">
</g>
<path d="M374.044 123.588L374.287 118.11C376.826 116.752 379.657 116.035 382.536 116.021C378.574 119.261 379.069 125.508 376.383 129.865C375.535 131.218 374.394 132.362 373.044 133.213C371.693 134.065 370.169 134.601 368.583 134.783L365.268 136.813C364.813 134.276 364.914 131.671 365.562 129.176C366.211 126.681 367.392 124.357 369.025 122.363C369.952 121.254 371.015 120.266 372.189 119.422C372.983 121.516 374.044 123.588 374.044 123.588Z" fill="#F2F2F2"/>
<path d="M481.278 29.3589H375.353C374.831 29.3589 374.331 29.5662 373.961 29.9352C373.592 30.3042 373.384 30.8048 373.384 31.3269V81.3513C373.384 81.8737 373.592 82.3746 373.961 82.744C374.33 83.1134 374.831 83.3212 375.353 83.3218H481.278C481.8 83.3207 482.3 83.1127 482.668 82.7433C483.037 82.3739 483.245 81.8733 483.245 81.3513V31.3269C483.244 30.8051 483.037 30.3049 482.668 29.9359C482.299 29.5669 481.799 29.3594 481.278 29.3589Z" fill="#3F3D56"/>
<path d="M453.299 53.4592C452.777 53.4598 452.277 53.6673 451.908 54.0362C451.54 54.4052 451.332 54.9055 451.332 55.4273V69.5578C451.332 70.0798 451.539 70.5804 451.908 70.9498C452.277 71.3191 452.777 71.5272 453.299 71.5283H483.245V53.4592H453.299Z" fill="#6C63FF"/>
<path opacity="0.5" d="M525.224 72H452.776C452.305 71.9994 451.854 71.781 451.521 71.3927C451.188 71.0044 451.001 70.478 451 69.9289V55.071C451.001 54.5219 451.188 53.9955 451.521 53.6073C451.854 53.219 452.305 53.0006 452.776 53H525.224C525.695 53.0006 526.146 53.219 526.479 53.6073C526.812 53.9955 526.999 54.5219 527 55.071V69.9289C526.999 70.478 526.812 71.0044 526.479 71.3927C526.146 71.781 525.695 71.9994 525.224 72Z" fill="#6C63FF"/>
<path d="M464.159 66.5922C465.923 66.5922 467.353 65.1612 467.353 63.3961C467.353 61.6309 465.923 60.2 464.159 60.2C462.395 60.2 460.964 61.6309 460.964 63.3961C460.964 65.1612 462.395 66.5922 464.159 66.5922Z" fill="white"/>
<path d="M523.138 62H470.862C470.633 62 470.414 61.9473 470.252 61.8536C470.091 61.7598 470 61.6326 470 61.5C470 61.3674 470.091 61.2402 470.252 61.1464C470.414 61.0527 470.633 61 470.862 61H523.138C523.367 61 523.586 61.0527 523.748 61.1464C523.909 61.2402 524 61.3674 524 61.5C524 61.6326 523.909 61.7598 523.748 61.8536C523.586 61.9473 523.367 62 523.138 62Z" fill="white"/>
<path d="M509.186 66.228H473.386C473.134 66.228 472.892 66.1278 472.714 65.9493C472.535 65.7708 472.435 65.5287 472.435 65.2762C472.435 65.0238 472.535 64.7817 472.714 64.6032C472.892 64.4247 473.134 64.3245 473.386 64.3245H509.186C509.438 64.3245 509.68 64.4247 509.859 64.6032C510.037 64.7817 510.137 65.0238 510.137 65.2762C510.137 65.5287 510.037 65.7708 509.859 65.9493C509.68 66.1278 509.438 66.228 509.186 66.228Z" fill="white"/>
<path d="M357.952 134.207L360.717 134.207L362.032 123.538H357.952L357.952 134.207Z" fill="#FFB6B6"/>
<path d="M357.247 133.304L358.025 133.304L361.063 132.068L362.692 133.304C363.612 133.304 364.495 133.669 365.145 134.32C365.796 134.971 366.162 135.854 366.162 136.775V136.888L357.247 136.888L357.247 133.304Z" fill="#2F2E41"/>
<path d="M332.971 130.611L335.446 131.845L341.38 122.883L337.728 121.062L332.971 130.611Z" fill="#FFB6B6"/>
<path d="M332.743 129.488L333.439 129.835L336.71 130.085L337.616 131.918C338.439 132.328 339.066 133.05 339.359 133.923C339.651 134.796 339.584 135.749 339.174 136.573L339.123 136.674L331.145 132.696L332.743 129.488Z" fill="#2F2E41"/>
<path d="M359.177 85.7527L341.598 86.2115L341.904 94.7756C341.904 94.7756 341.598 97.0696 342.21 97.6813C342.821 98.293 343.127 98.293 342.821 99.3635C342.516 100.434 341.725 110.662 341.725 110.662C341.725 110.662 334.51 123.425 334.816 123.731C335.122 124.037 335.428 123.731 335.122 124.496C334.816 125.261 334.51 124.955 334.816 125.261C335.087 125.553 335.342 125.859 335.58 126.178H340.563C340.563 126.178 340.842 124.649 340.842 124.496C340.842 124.343 341.147 123.425 341.147 123.273C341.147 123.12 349.853 113.892 349.853 113.892L351.687 98.5989L356.12 113.586C356.12 113.586 356.12 126.738 356.426 127.044C356.731 127.35 356.731 127.197 356.579 127.809C356.426 128.42 355.814 128.267 356.273 128.726C356.731 129.185 356.884 128.42 356.731 129.185L356.579 129.95L362.451 130.015C362.451 130.015 363.063 128.726 362.757 128.267C362.451 127.809 362.47 127.934 362.843 127.183C363.216 126.432 363.368 126.279 363.216 126.126C363.063 125.973 363.063 125.16 363.063 125.16C363.063 125.16 360.859 95.0815 360.859 94.6227C360.847 94.3866 360.891 94.1511 360.986 93.9347V93.3119L360.4 91.1053L359.177 85.7527Z" fill="#2F2E41"/>
<path d="M513.255 59.1987C511.921 59.1987 510.616 58.8029 509.507 58.0614C508.398 57.3199 507.533 56.2659 507.023 55.0328C506.512 53.7996 506.379 52.4427 506.639 51.1336C506.899 49.8245 507.542 48.6221 508.485 47.6783C509.428 46.7345 510.63 46.0917 511.939 45.8313C513.247 45.5709 514.603 45.7046 515.836 46.2154C517.068 46.7261 518.122 47.5911 518.863 48.7009C519.604 49.8107 520 51.1155 520 52.4502C520 54.24 519.289 55.9565 518.024 57.2221C516.759 58.4877 515.044 59.1987 513.255 59.1987Z" fill="#6C63FF"/>
<path d="M515.916 51.7846H513.92V49.7875C513.92 49.611 513.85 49.4417 513.725 49.3168C513.6 49.192 513.431 49.1218 513.255 49.1218C513.078 49.1218 512.909 49.192 512.784 49.3168C512.659 49.4417 512.589 49.611 512.589 49.7875V51.7846H510.593C510.506 51.7845 510.419 51.8016 510.338 51.835C510.257 51.8683 510.184 51.9173 510.122 51.9792C510.06 52.041 510.011 52.1145 509.977 52.1953C509.944 52.2762 509.926 52.3628 509.926 52.4503C509.926 52.5379 509.944 52.6245 509.977 52.7054C510.011 52.7862 510.06 52.8597 510.122 52.9215C510.184 52.9834 510.257 53.0324 510.338 53.0657C510.419 53.0991 510.506 53.1162 510.593 53.116H512.589V55.1132C512.589 55.2897 512.659 55.459 512.784 55.5839C512.909 55.7087 513.078 55.7789 513.255 55.7789C513.431 55.7789 513.6 55.7087 513.725 55.5839C513.85 55.459 513.92 55.2897 513.92 55.1132V53.116H515.916C516.093 53.116 516.262 53.0459 516.387 52.9211C516.511 52.7962 516.582 52.6269 516.582 52.4503C516.582 52.2738 516.511 52.1045 516.387 51.9796C516.262 51.8548 516.093 51.7846 515.916 51.7846Z" fill="white"/>
<path d="M430.311 71.6184H404.682C404.16 71.619 403.659 71.8268 403.29 72.1962C402.921 72.5656 402.713 73.0665 402.712 73.5889V83.3218H432.278V73.5889C432.277 73.0669 432.07 72.5663 431.701 72.1969C431.333 71.8275 430.832 71.6195 430.311 71.6184Z" fill="#6C63FF"/>
<path opacity="0.5" d="M430.31 98.9661H404.681C404.159 98.9655 403.659 98.7578 403.29 98.3886C402.92 98.0193 402.713 97.5187 402.712 96.9965V73.5879C402.713 73.0658 402.92 72.5651 403.29 72.1959C403.659 71.8267 404.159 71.619 404.681 71.6184H430.31C430.832 71.619 431.332 71.8267 431.701 72.1959C432.07 72.5651 432.278 73.0658 432.278 73.5879V96.9965C432.278 97.5187 432.07 98.0193 431.701 98.3886C431.332 98.7578 430.832 98.9655 430.31 98.9661Z" fill="#6C63FF"/>
<path d="M412.232 82.714C413.996 82.714 415.426 81.283 415.426 79.5179C415.426 77.7527 413.996 76.3218 412.232 76.3218C410.468 76.3218 409.037 77.7527 409.037 79.5179C409.037 81.283 410.468 82.714 412.232 82.714Z" fill="white"/>
<path d="M425.002 87.5719H409.989C409.736 87.5719 409.494 87.4717 409.316 87.2932C409.138 87.1147 409.037 86.8726 409.037 86.6202C409.037 86.3678 409.138 86.1257 409.316 85.9472C409.494 85.7687 409.736 85.6685 409.989 85.6685H425.002C425.254 85.6685 425.496 85.7687 425.674 85.9472C425.853 86.1257 425.953 86.3678 425.953 86.6202C425.953 86.8726 425.853 87.1147 425.674 87.2932C425.496 87.4717 425.254 87.5719 425.002 87.5719Z" fill="white"/>
<path d="M417.233 91.3328H409.989C409.736 91.3328 409.494 91.2325 409.316 91.054C409.137 90.8755 409.037 90.6334 409.037 90.381C409.037 90.1286 409.137 89.8865 409.316 89.708C409.494 89.5295 409.736 89.4292 409.989 89.4292H417.233C417.485 89.4292 417.727 89.5295 417.906 89.708C418.084 89.8865 418.185 90.1286 418.185 90.381C418.185 90.6334 418.084 90.8755 417.906 91.054C417.727 91.2325 417.485 91.3328 417.233 91.3328Z" fill="white"/>
<path d="M404.147 105.836C402.812 105.836 401.508 105.441 400.399 104.699C399.29 103.958 398.425 102.904 397.915 101.67C397.404 100.437 397.271 99.0804 397.531 97.7713C397.791 96.4622 398.434 95.2598 399.377 94.316C400.32 93.3722 401.522 92.7294 402.831 92.469C404.139 92.2086 405.495 92.3423 406.728 92.8531C407.96 93.3638 409.014 94.2288 409.755 95.3386C410.496 96.4484 410.892 97.7532 410.892 99.0879C410.892 100.878 410.181 102.594 408.916 103.86C407.651 105.125 405.936 105.836 404.147 105.836Z" fill="#6C63FF"/>
<path d="M406.808 98.4221H404.812V96.425C404.812 96.2484 404.742 96.0791 404.617 95.9543C404.492 95.8294 404.323 95.7593 404.147 95.7593C403.97 95.7593 403.801 95.8294 403.676 95.9543C403.551 96.0791 403.481 96.2484 403.481 96.425V98.4221H401.485C401.398 98.4219 401.311 98.439 401.23 98.4724C401.149 98.5058 401.076 98.5548 401.014 98.6166C400.952 98.6785 400.903 98.7519 400.869 98.8328C400.836 98.9136 400.818 99.0003 400.818 99.0878C400.818 99.1753 400.836 99.262 400.869 99.3428C400.903 99.4237 400.952 99.4971 401.014 99.559C401.076 99.6208 401.149 99.6698 401.23 99.7032C401.311 99.7366 401.398 99.7537 401.485 99.7535H403.481V101.751C403.481 101.927 403.551 102.096 403.676 102.221C403.801 102.346 403.97 102.416 404.147 102.416C404.323 102.416 404.492 102.346 404.617 102.221C404.742 102.096 404.812 101.927 404.812 101.751V99.7535H406.808C406.985 99.7535 407.154 99.6834 407.279 99.5585C407.403 99.4337 407.474 99.2644 407.474 99.0878C407.474 98.9112 407.403 98.7419 407.279 98.6171C407.154 98.4922 406.985 98.4221 406.808 98.4221Z" fill="white"/>
<path d="M401.024 56.7371H375.395C374.873 56.7365 374.373 56.5288 374.004 56.1596C373.635 55.7903 373.427 55.2897 373.427 54.7675V31.3589C373.427 30.8368 373.635 30.3361 374.004 29.9669C374.373 29.5977 374.874 29.39 375.395 29.3894H401.024C401.546 29.39 402.047 29.5977 402.416 29.9669C402.785 30.3361 402.992 30.8368 402.993 31.3589V54.7675C402.992 55.2897 402.785 55.7903 402.416 56.1596C402.047 56.5288 401.546 56.7365 401.024 56.7371Z" fill="#6C63FF"/>
<path d="M382.947 42.4384C384.711 42.4384 386.141 41.0074 386.141 39.2423C386.141 37.4771 384.711 36.0461 382.947 36.0461C381.182 36.0461 379.752 37.4771 379.752 39.2423C379.752 41.0074 381.182 42.4384 382.947 42.4384Z" fill="#6C63FF"/>
<path d="M395.716 46.3197H380.703C380.451 46.3197 380.209 46.2195 380.031 46.041C379.852 45.8625 379.752 45.6204 379.752 45.368C379.752 45.1156 379.852 44.8735 380.031 44.695C380.209 44.5165 380.451 44.4163 380.703 44.4163H395.716C395.969 44.4163 396.211 44.5165 396.389 44.695C396.567 44.8735 396.668 45.1156 396.668 45.368C396.668 45.6204 396.567 45.8625 396.389 46.041C396.211 46.2195 395.969 46.3197 395.716 46.3197Z" fill="#6C63FF"/>
<path d="M387.948 50.0803H380.703C380.451 50.0803 380.209 49.98 380.031 49.8016C379.852 49.6231 379.752 49.381 379.752 49.1285C379.752 48.8761 379.852 48.634 380.031 48.4555C380.209 48.277 380.451 48.1768 380.703 48.1768H387.948C388.2 48.1768 388.442 48.277 388.621 48.4555C388.799 48.634 388.899 48.8761 388.899 49.1285C388.899 49.381 388.799 49.6231 388.621 49.8016C388.442 49.98 388.2 50.0803 387.948 50.0803Z" fill="#6C63FF"/>
<path opacity="0.5" d="M401.024 56.7371H375.395C374.873 56.7365 374.373 56.5288 374.004 56.1596C373.635 55.7903 373.427 55.2897 373.427 54.7675V31.3589C373.427 30.8368 373.635 30.3361 374.004 29.9669C374.373 29.5977 374.874 29.39 375.395 29.3894H401.024C401.546 29.39 402.047 29.5977 402.416 29.9669C402.785 30.3361 402.992 30.8368 402.993 31.3589V54.7675C402.992 55.2897 402.785 55.7903 402.416 56.1596C402.047 56.5288 401.546 56.7365 401.024 56.7371Z" fill="#6C63FF"/>
<path d="M382.947 42.4384C384.711 42.4384 386.141 41.0074 386.141 39.2423C386.141 37.4771 384.711 36.0461 382.947 36.0461C381.182 36.0461 379.752 37.4771 379.752 39.2423C379.752 41.0074 381.182 42.4384 382.947 42.4384Z" fill="white"/>
<path d="M395.716 46.3197H380.703C380.451 46.3197 380.209 46.2195 380.031 46.041C379.852 45.8625 379.752 45.6204 379.752 45.368C379.752 45.1156 379.852 44.8735 380.031 44.695C380.209 44.5165 380.451 44.4163 380.703 44.4163H395.716C395.969 44.4163 396.211 44.5165 396.389 44.695C396.567 44.8735 396.668 45.1156 396.668 45.368C396.668 45.6204 396.567 45.8625 396.389 46.041C396.211 46.2195 395.969 46.3197 395.716 46.3197Z" fill="white"/>
<path d="M387.948 50.0803H380.703C380.451 50.0803 380.209 49.98 380.031 49.8016C379.852 49.6231 379.752 49.381 379.752 49.1285C379.752 48.8761 379.852 48.634 380.031 48.4555C380.209 48.277 380.451 48.1768 380.703 48.1768H387.948C388.2 48.1768 388.442 48.277 388.621 48.4555C388.799 48.634 388.899 48.8761 388.899 49.1285C388.899 49.381 388.799 49.6231 388.621 49.8016C388.442 49.98 388.2 50.0803 387.948 50.0803Z" fill="white"/>
<path d="M375.924 34.4402C378.755 34.4402 381.049 32.1445 381.049 29.3125C381.049 26.4806 378.755 24.1848 375.924 24.1848C373.094 24.1848 370.799 26.4806 370.799 29.3125C370.799 32.1445 373.094 34.4402 375.924 34.4402Z" fill="#FF6584"/>
<path d="M374.829 42.8946C375.039 43.484 375.01 44.1327 374.747 44.7007C374.484 45.2687 374.009 45.7105 373.423 45.931C373.294 45.9794 373.16 46.0162 373.024 46.0411L371.67 54.3332L368.495 51.4L370.267 43.9754C370.202 43.3497 370.385 42.7234 370.777 42.2318C371.17 41.7402 371.74 41.4228 372.364 41.3482C372.889 41.2879 373.419 41.4082 373.867 41.6892C374.315 41.9703 374.654 42.3953 374.829 42.8946Z" fill="#FFB6B6"/>
<path d="M351.395 61.6836C351.395 61.6836 353.86 58.4259 362.803 58.5151L367.878 56.67L369.038 46.0312L373.099 46.9984L372.519 60.1518L363.818 65.1811L352.411 67.5022L351.395 61.6836Z" fill="#3F3D56"/>
<path d="M350.086 54.897C353.017 54.897 355.394 52.5196 355.394 49.5868C355.394 46.6541 353.017 44.2766 350.086 44.2766C347.155 44.2766 344.778 46.6541 344.778 49.5868C344.778 52.5196 347.155 54.897 350.086 54.897Z" fill="#FFB6B6"/>
<path d="M341.103 89.8502C341.093 89.8502 341.084 89.8489 341.075 89.8464C340.977 89.819 340.899 89.7975 341.253 86.7381L341.635 84.32L341.262 82.1847L340.635 81.5577L341.643 80.55L342.488 78.1478L341.025 75.9794L339.347 67.1119C339.059 65.5817 339.283 63.9991 339.985 62.6094C340.687 61.2197 341.828 60.1006 343.23 59.4256L345.173 58.8579L345.879 57.5613C346.078 57.1972 346.37 56.8929 346.725 56.6798C347.081 56.4668 347.487 56.3528 347.902 56.3497L351.458 56.3231C351.817 56.3204 352.172 56.4009 352.494 56.5583C352.817 56.7157 353.098 56.9456 353.317 57.2302L354.558 58.844L359.703 60.5927L358.85 78.9843C358.986 79.0978 359.096 79.2382 359.175 79.3966C359.253 79.555 359.298 79.728 359.306 79.9046C359.315 80.0812 359.286 80.2576 359.223 80.4226C359.159 80.5877 359.062 80.7377 358.938 80.8633C358.885 80.9173 358.842 80.9613 358.816 80.9903C358.729 81.1136 358.892 82.0341 359.093 82.8157L359.351 84.0124C359.268 84.0716 359.198 84.1472 359.146 84.2346C359.094 84.322 359.061 84.4192 359.048 84.5201C359.036 84.621 359.044 84.7235 359.073 84.821C359.102 84.9184 359.151 85.0088 359.217 85.0865L359.545 85.4748C359.61 85.9618 359.48 86.4546 359.182 86.8453C358.884 87.236 358.444 87.4926 357.957 87.5589C353.255 88.1991 341.127 89.8502 341.103 89.8502Z" fill="#3F3D56"/>
<path d="M348.728 54.6369C348.706 54.587 348.683 54.5369 348.66 54.4866C348.669 54.4869 348.678 54.4881 348.686 54.4883L348.728 54.6369Z" fill="#2F2E41"/>
<path d="M344.631 44.5181C344.883 44.2802 345.21 44.1385 345.556 44.1177C345.899 44.1288 346.247 44.439 346.176 44.7751C346.807 43.6583 347.81 42.7994 349.01 42.3491C350.211 41.8988 351.531 41.8859 352.74 42.3126C353.593 42.6137 354.43 43.2161 354.626 44.0996C354.645 44.3316 354.714 44.5566 354.828 44.7592C354.928 44.8676 355.056 44.9445 355.199 44.9806C355.341 45.0167 355.491 45.0103 355.629 44.9623L355.638 44.9598C355.685 44.9436 355.737 44.942 355.785 44.9552C355.833 44.9685 355.877 44.9959 355.909 45.0341C355.942 45.0722 355.963 45.1193 355.968 45.1692C355.974 45.2191 355.964 45.2695 355.941 45.314L355.7 45.7643C356.004 45.8322 356.32 45.8255 356.621 45.7447C356.671 45.7316 356.724 45.7343 356.772 45.7524C356.821 45.7705 356.862 45.8032 356.892 45.8459C356.921 45.8887 356.936 45.9394 356.935 45.9911C356.934 46.0428 356.918 46.093 356.887 46.1349C356.486 46.6839 355.962 47.1317 355.358 47.4426C354.753 47.7535 354.084 47.9189 353.405 47.9257C352.44 47.9198 351.466 47.5873 350.527 47.8092C350.164 47.895 349.825 48.0611 349.534 48.2952C349.244 48.5293 349.009 48.8256 348.848 49.1622C348.687 49.4988 348.603 49.8673 348.603 50.2406C348.603 50.6138 348.686 50.9824 348.846 51.3193C348.558 51.0038 348.001 51.0785 347.706 51.3879C347.57 51.5535 347.47 51.7452 347.411 51.9512C347.352 52.1572 347.336 52.3731 347.364 52.5855C347.443 53.236 347.636 53.8674 347.934 54.4506C346.794 54.4155 345.692 54.0311 344.777 53.3493C343.862 52.6674 343.178 51.721 342.818 50.6379C342.457 49.5548 342.438 48.3872 342.762 47.2928C343.086 46.1983 343.739 45.2298 344.631 44.5181Z" fill="#2F2E41"/>
<path d="M343.17 97.4663C342.663 97.1001 342.32 96.5491 342.214 95.9321C342.109 95.315 342.251 94.6813 342.608 94.1677C342.688 94.0544 342.777 93.9483 342.875 93.8507L339.293 86.2512L343.571 86.8677L346.316 93.9897C346.725 94.468 346.929 95.0879 346.884 95.7154C346.839 96.3429 346.549 96.9275 346.077 97.343C345.679 97.6904 345.174 97.8919 344.645 97.9143C344.117 97.9367 343.597 97.7787 343.17 97.4663Z" fill="#FFB6B6"/>
<path d="M342.086 93.3166L336.386 80.5014L336.329 70.3799L338.126 64.9126C338.37 64.1709 338.76 63.4856 339.273 62.8971C339.786 62.3087 340.411 61.8292 341.113 61.4868C341.814 61.1444 342.577 60.9462 343.356 60.9039C344.135 60.8615 344.915 60.9759 345.65 61.2402L345.689 61.2545L345.706 61.2932C345.772 61.4482 347.279 65.1771 342.81 72.8481L341.91 78.097L345.066 90.1285L342.086 93.3166Z" fill="#3F3D56"/>
</svg>
