<svg width="159" height="30" viewBox="0 0 159 30" fill="none" xmlns="http://www.w3.org/2000/svg">
<path fill-rule="evenodd" clip-rule="evenodd" d="M48.0328 4.95944C47.0493 4.63113 45.9998 5.11071 45.6013 6.07055L38.3848 23.4528H42.291L47.522 10.1504L52.7519 23.4501H56.6583L49.5151 6.24508C49.2432 5.59018 48.6959 5.13875 48.0615 4.97629C48.052 4.97059 48.0425 4.96497 48.0328 4.95944ZM86.9002 5.54286C85.8389 5.18095 84.5811 5 83.1268 5H76.7962C76.58 5 76.3933 5.07238 76.2361 5.21714C76.0789 5.36191 76.0002 5.53381 76.0002 5.73286V23.2671C76.0002 23.4662 76.0789 23.6381 76.2361 23.7829C76.3933 23.9276 76.58 24 76.7962 24H83.2742C84.6892 24 85.9175 23.8281 86.9592 23.4843C88.0205 23.1224 88.9049 22.6157 89.6124 21.9643C90.3199 21.3129 90.8604 20.5257 91.2338 19.6029C91.6269 18.68 91.8627 17.6486 91.9413 16.5086C92.0199 15.1695 92.0199 13.8305 91.9413 12.4914C91.8627 11.3514 91.6269 10.32 91.2338 9.39714C90.8604 8.47429 90.3101 7.68714 89.5829 7.03572C88.8754 6.38429 87.9811 5.88667 86.9002 5.54286ZM87.5783 10.89C87.7945 11.3786 87.9222 11.9124 87.9615 12.4914C88.0401 13.8305 88.0401 15.1695 87.9615 16.5086C87.9222 17.0876 87.7945 17.6305 87.5783 18.1371C87.3817 18.6438 87.0869 19.0781 86.6939 19.44C86.3008 19.8019 85.8095 20.0914 85.2199 20.3086C84.6303 20.5076 83.9326 20.6071 83.1268 20.6071H79.98V8.39286H82.9794C83.8245 8.39286 84.5517 8.50143 85.1609 8.71857C85.7701 8.91762 86.2713 9.20714 86.6644 9.58714C87.0771 9.94906 87.3817 10.3833 87.5783 10.89ZM94.9807 5.37905C94.4284 5.37905 93.9807 5.82677 93.9807 6.37905V8.20375C93.9807 8.75603 94.4284 9.20375 94.9807 9.20375H96.9556V19.8291H94.9807C94.4284 19.8291 93.9807 20.2768 93.9807 20.8291V22.6538C93.9807 23.2061 94.4284 23.6538 94.9807 23.6538H102.755C103.307 23.6538 103.755 23.2061 103.755 22.6538V20.8291C103.755 20.2768 103.307 19.8291 102.755 19.8291H100.355V9.20375H102.755C103.307 9.20375 103.755 8.75603 103.755 8.20375V6.37905C103.755 5.82677 103.307 5.37905 102.755 5.37905H94.9807ZM149.226 6.37905C149.226 5.82677 149.674 5.37905 150.226 5.37905H158C158.553 5.37905 159 5.82677 159 6.37905V8.20375C159 8.75603 158.553 9.20375 158 9.20375H156.026V19.8291H158C158.553 19.8291 159 20.2768 159 20.8291V22.6538C159 23.2061 158.553 23.6538 158 23.6538H150.226C149.674 23.6538 149.226 23.2061 149.226 22.6538V20.8291C149.226 20.2768 149.674 19.8291 150.226 19.8291H152.626V9.20375H150.226C149.674 9.20375 149.226 8.75603 149.226 8.20375V6.37905ZM106.455 5.37905C105.903 5.37905 105.455 5.82677 105.455 6.37905V8.20375C105.455 8.75603 105.903 9.20375 106.455 9.20375H109.704V22.6526C109.704 23.2049 110.152 23.6526 110.704 23.6526H112.104C112.656 23.6526 113.104 23.2049 113.104 22.6526V9.20375H117.204C117.756 9.20375 118.204 8.75603 118.204 8.20375V6.37905C118.204 5.82677 117.756 5.37905 117.204 5.37905H106.455ZM119.904 6.37905C119.904 5.82677 120.351 5.37905 120.904 5.37905H131.653C132.205 5.37905 132.653 5.82677 132.653 6.37905V8.20375C132.653 8.75603 132.205 9.20375 131.653 9.20375H127.978V22.6526C127.978 23.2049 127.53 23.6526 126.978 23.6526H125.578C125.026 23.6526 124.578 23.2049 124.578 22.6526V9.20375H120.904C120.351 9.20375 119.904 8.75603 119.904 8.20375V6.37905ZM135.353 5.37905C134.801 5.37905 134.353 5.82677 134.353 6.37905V8.20375C134.353 8.75603 134.801 9.20375 135.353 9.20375H146.527C147.079 9.20375 147.527 8.75603 147.527 8.20375V6.37905C147.527 5.82677 147.079 5.37905 146.527 5.37905H135.353ZM136.477 13.1803C136.477 12.628 136.925 12.1803 137.477 12.1803H144.401C144.954 12.1803 145.401 12.628 145.401 13.1803V15.005C145.401 15.5573 144.954 16.005 144.401 16.005H137.477C136.925 16.005 136.477 15.5573 136.477 15.005V13.1803ZM135.353 19.8291C134.801 19.8291 134.353 20.2768 134.353 20.8291V22.6538C134.353 23.2061 134.801 23.6538 135.353 23.6538H146.527C147.079 23.6538 147.527 23.2061 147.527 22.6538V20.8291C147.527 20.2768 147.079 19.8291 146.527 19.8291H135.353ZM73.7769 5.21409C73.6279 5.07136 73.4511 5 73.2463 5H71.0125C70.8077 5 70.6309 5.07136 70.4819 5.21409C70.333 5.35681 70.2585 5.52629 70.2585 5.72254V16.5606C70.2585 17.292 70.1468 17.9164 69.9235 18.4338C69.7187 18.9512 69.4302 19.3794 69.0578 19.7183C68.6855 20.0394 68.2295 20.2803 67.6896 20.4408C67.1684 20.5836 66.6006 20.6549 65.9863 20.6549C65.372 20.6549 64.8042 20.5836 64.283 20.4408C63.7617 20.2803 63.315 20.0394 62.9427 19.7183C62.5703 19.3794 62.2818 18.9512 62.077 18.4338C61.8723 17.9164 61.7699 17.292 61.7699 16.5606V5.72254C61.7699 5.52629 61.6954 5.35681 61.5465 5.21409C61.3976 5.07136 61.2207 5 61.016 5H58.7542C58.5494 5 58.3726 5.07136 58.2236 5.21409C58.0747 5.35681 58.0002 5.52629 58.0002 5.72254V16.6944C58.0002 17.8005 58.1585 18.7995 58.4749 19.6916C58.81 20.5836 59.3126 21.3507 59.9828 21.993C60.653 22.6352 61.4813 23.1347 62.468 23.4916C63.4732 23.8305 64.646 24 65.9863 24C67.308 24 68.4714 23.8305 69.4767 23.4916C70.4819 23.1347 71.3196 22.6352 71.9898 21.993C72.6599 21.3507 73.1625 20.5836 73.4976 19.6916C73.8327 18.7995 74.0002 17.8005 74.0002 16.6944V5.72254C74.0002 5.52629 73.9258 5.35681 73.7769 5.21409Z" fill="black"/>
<path d="M15.5709 28.7025C12.0037 28.7025 8.64987 27.32 6.12725 24.8096C0.919822 19.6276 0.919822 11.1953 6.12725 6.01328C8.64987 3.50283 12.0037 2.12036 15.5709 2.12036C19.1382 2.12036 22.492 3.50283 25.0146 6.01328C30.2221 11.1953 30.2221 19.6276 25.0146 24.8096C22.492 27.32 19.1382 28.7025 15.5709 28.7025ZM15.5709 3.41709C12.3517 3.41709 9.32487 4.66469 7.0485 6.93013C2.34941 11.6069 2.34941 19.216 7.0485 23.8928C9.32487 26.1582 12.3517 27.4058 15.5709 27.4058C18.7902 27.4058 21.817 26.1582 24.0934 23.8928C28.7925 19.216 28.7925 11.6069 24.0934 6.93013C21.817 4.66469 18.7902 3.41709 15.5709 3.41709Z" fill="#265FF3"/>
<path d="M25.707 4.40991L26.6283 5.32667L5.43731 26.4154L4.51611 25.4986L25.707 4.40991Z" fill="#265FF3"/>
<path d="M29.4665 1.58426C28.9744 1.09423 28.32 0.824463 27.624 0.824463C26.928 0.824463 26.2737 1.09418 25.7815 1.58426C25.2891 2.07401 25.0181 2.72521 25.0181 3.41787C25.0181 4.11052 25.2891 4.76172 25.7815 5.25147C26.2737 5.74151 26.928 6.01127 27.624 6.01127C28.32 6.01127 28.9744 5.74156 29.4665 5.25147C29.9589 4.76172 30.23 4.11052 30.23 3.41787C30.23 2.72521 29.959 2.07401 29.4665 1.58426ZM28.5453 4.33462C28.0528 4.82466 27.1952 4.82466 26.7028 4.33462C26.4566 4.08961 26.3211 3.76415 26.3211 3.41782C26.3211 3.07149 26.4566 2.74603 26.7028 2.50102C26.949 2.256 27.276 2.12114 27.624 2.12114C27.972 2.12114 28.2991 2.256 28.5453 2.50102C28.7915 2.74603 28.927 3.07149 28.927 3.41782C28.927 3.76419 28.7915 4.08961 28.5453 4.33462ZM3.51906 24.8132C2.82305 24.8132 2.16869 25.0829 1.67657 25.573C1.18416 26.0627 0.913086 26.7139 0.913086 27.4066C0.913086 28.0992 1.18411 28.7505 1.67657 29.2402C2.16869 29.7303 2.82305 30 3.51906 30C4.21507 30 4.86943 29.7303 5.36155 29.2402C5.85396 28.7505 6.12503 28.0992 6.12503 27.4066C6.12503 26.7139 5.85401 26.0627 5.36155 25.573C4.86943 25.083 4.21507 24.8132 3.51906 24.8132ZM4.44031 28.3234C3.9479 28.8134 3.09027 28.8134 2.59781 28.3234C2.35161 28.0784 2.2161 27.7529 2.2161 27.4066C2.2161 27.0603 2.35161 26.7348 2.59781 26.4898C2.84402 26.2448 3.17105 26.1099 3.51906 26.1099C3.86706 26.1099 4.1941 26.2448 4.44031 26.4898C4.68651 26.7348 4.82202 27.0603 4.82202 27.4066C4.82202 27.7529 4.68651 28.0784 4.44031 28.3234ZM12.3456 5.33026C10.463 5.33026 8.63966 5.71331 6.92598 6.46899L6.69661 6.56997L6.59448 6.7979C4.36199 11.7887 5.47029 17.7405 9.35246 21.604C11.8741 24.1138 15.2263 25.4987 18.7917 25.4987H18.792C20.6806 25.4987 22.5094 25.11 24.2275 24.3487L24.4566 24.2457L24.558 24.0168C26.7794 19.0266 25.6673 13.0816 21.7905 9.22351C19.268 6.71311 15.9138 5.33026 12.3456 5.33026ZM18.7918 24.1965C15.5748 24.1965 12.5496 22.9492 10.2738 20.6845C7.0012 17.4277 5.91829 12.5301 7.43109 8.22783L22.7942 23.5169C21.5116 23.9667 20.1697 24.1965 18.7918 24.1965ZM23.7148 22.5994L8.34577 7.3045C9.62776 6.85596 10.9689 6.62699 12.3456 6.62699C15.5658 6.62699 18.593 7.8746 20.8693 10.14C24.1402 13.3951 25.2246 18.2948 23.7148 22.5994Z" fill="#AFC5FF"/>
</svg>
